<?xml version="1.0" encoding="utf-8"?>
<!-- Generator: Adobe Illustrator 16.0.0, SVG Export Plug-In . SVG Version: 6.00 Build 0)  -->
<svg version="1.2" baseProfile="tiny" xmlns="http://www.w3.org/2000/svg" xmlns:xlink="http://www.w3.org/1999/xlink" x="0px"
	 y="0px" width="630px" height="452px" viewBox="0 0 630 452" xml:space="preserve">
<g id="Layer_1">
	<path id="Shape_1_31_" fill="#7DB721" stroke="#000000" stroke-width="0.5" stroke-miterlimit="10" d="M403.352,389.139
		l-1.166-1.524l0.359-0.18l-0.719-1.075l-5.112,1.703l-3.229,0.447l-1.434-1.433l-1.076,0.448l-0.27,1.791l0.27,2.779l-0.898,1.613
		l-1.166,0.983l-1.615,0.181l-0.986-2.509l-0.178-2.33l-1.077-1.164l-1.436-0.538l-1.255-1.075l-0.719-1.793l-1.166-0.089
		l-4.934,1.702l-3.229,0.089l-5.472-2.508l-2.602-0.358l-2.422,1.075l-1.255,2.957l-5.113,2.689v1.343l0.628-0.269l1.524,2.957
		l-2.512,2.597l0.539,0.629l-1.166,1.702l-2.512,3.226l1.076,1.164l1.346,0.629l1.704-1.524l1.704,0.896h-0.09v0.181h-0.09
		l0.18,0.089v-0.089h0.18v0.269h-0.09v0.089h0.09l-0.09,0.091h0.18v0.089h0.09v0.089h0.09v-0.089h0.18l0.089,0.537l-0.18-0.088
		l-0.269,0.088v0.181h0.359l0.089,0.537h-0.089l-0.091,0.179l0.36,0.18v0.089l-0.719,0.18v0.089l0.449,0.091l0.089,0.27h-0.089
		v-0.092l-0.18-0.089l-0.09,0.089l0.179,0.092l0.091,0.269l-1.525-0.718l-0.719,1.075l1.077,0.627l-0.269,0.091v0.178h-0.09v0.091
		h-0.18l-0.09,0.269l0.18,0.089v0.358h-0.18v-0.089l-0.27-0.09v0.09v0.089l0.181,0.091l-0.091,0.269v-0.091h-0.178v-0.089h-0.181
		l0.089,0.448h-0.089l-0.269-0.18l-0.09,0.18h0.09v0.089h-0.09v0.09h-0.09l0.09,0.269l-0.18,0.269v-0.089h-0.09v-0.089l-0.268-0.091
		v0.18l0.178,0.089l-0.09,0.36l-0.27,0.089v0.18h0.182l0.088,0.269h-0.18v-0.091h-0.09l-0.088,0.269l0.088,0.27l0.539,0.18
		l1.434,0.357v0.09h0.092v0.179l0.357,0.449l0.27,0.089v0.091h0.09l1.076,1.433l2.332-2.33l1.166,1.524l-2.961,3.315l0.092,1.972
		l0.447,0.716l-0.717,0.986l2.063,0.986l1.256,0.446l1.525,1.344l-1.168,1.524l2.783,3.584l0.717,0.537l0.359,1.344l-1.168-0.089
		l0.629,2.688l-0.359,0.986l-1.254,0.357l-1.615-0.626l-0.987,2.328l-0.181,1.345l-0.807,2.33l-2.33,2.419l-0.27,1.164v0.897
		l0.447,0.27l1.615,1.253l2.512,0.718l-0.27,0.626l0.09,0.091l-0.18,0.27l0.359,0.269l0.447-0.18l0.09-0.27l-0.09-0.806l0.449-0.538
		l1.795-0.626l0.627,0.269l1.076-0.986l1.256,0.269v2.419l-0.986,1.434l0.896,0.537l1.346-2.328l1.256-0.718l0.896,0.986
		l-0.09,0.447l0.896,0.806l3.32,1.345l0.09-1.075l0.448-1.075l0.269-1.522l0.359-1.075l1.076-1.523l-0.09-0.358l-0.18-0.091
		l-0.539,0.091l-0.179-0.269l0.091-0.269l0.627,0.089l0.359-0.18l-0.27-0.537l0.09-0.717l0.359-0.18l0.268,0.18l0.181,0.896
		l0.179,0.09l0.18-0.09l0.27-0.357l-0.09-0.359l-0.27-0.358l-0.629-0.357l-0.088-0.18l0.088-0.09l0.719-0.268l0.18-0.718
		l0.627,0.626l0.988-0.446l0.627-1.613l-0.809-0.986l0.27-0.269l0.182-1.344h1.254l0.808-1.345l-0.448-0.537l1.793-3.853
		l1.705-0.449l-0.18-1.97h1.256l0.09-1.794l0.807-0.537L389,425.16l0.18-0.091l0.449-0.807l-0.091-0.089v0.089h-0.09v-0.178h0.09
		v-0.091h0.179l-0.088-0.178l-0.181,0.089l0.09-0.18l0.179,0.091l0.27-0.091l0.18-0.538h0.09l0.27-0.715l0.449-0.092v-0.357
		l0.178-0.089l-0.09-0.18h-0.088l-0.092-0.181h-0.089l0.089-0.357l2.602-0.448l0.719-2.956l0.807-0.628l0.18-2.15l1.076-1.344
		l0.448-1.075l0.09-1.524l-0.179-1.075l0.447-1.253l-0.269-0.091v-0.089l-0.179,0.089l-0.091-0.357l0.27-0.181l-0.27-0.357
		l-0.448,0.18v-0.18l0.27-0.089v-0.091h0.27l0.089-0.27h0.09v0.092h0.179l-0.088-0.538l0.269-0.449l-0.091-1.075l0.27-0.717
		l-0.447-1.253l0.088-0.538l0.27-0.269l0.27-0.449l-0.09-0.269l0.448-2.062l-0.358-1.164l0.358-0.896l0.091-0.986l-0.091-1.164
		l3.05-0.538l-0.09-2.688l2.781-0.091l0.538-1.075h0.538l0.27-1.345L403.352,389.139z"/>
	<path id="Shape_1_30_" fill="#7DB721" stroke="#000000" stroke-width="0.5" stroke-miterlimit="10" d="M412.771,350.606
		l-0.092-1.164l0.27-0.986l-0.27-1.882l-0.986-0.357l-0.18-1.613l-0.449-0.986l-1.166-0.178l-0.268-0.807l-0.18-0.091l-0.18-1.344
		l-0.449-1.165l0.27-0.18l-0.538-1.253l-0.089-1.793l0.18-1.164l0.268-0.359l1.795-0.984l0.18-0.269l-2.96-0.629l-3.051-0.447
		l-2.331,0.27l-1.884-0.092l-2.96,0.898l-2.152,1.253l-3.768,2.688l-5.741,3.138l-5.112,0.895l-2.869-3.134l-2.334-1.436
		l-4.844,1.704l-3.318,0.984l-2.781-0.538l-4.305-0.446l-2.512-1.256l-3.23-0.537l-2.51,3.314l-2.244,1.613l-0.627,2.419
		l0.808,3.048l1.614,3.046l1.703,2.509l0.719,2.241l-0.986,5.377l0.807,3.94l0.359,3.138l-0.718,2.957l-0.089,2.419l0.357,3.046
		l3.678,4.301l4.216,4.661l2.422-1.075l2.602,0.358l5.472,2.508l3.229-0.089l4.934-1.702l1.166,0.089l0.719,1.793l1.255,1.075
		l1.436,0.538l1.077,1.164l0.178,2.33l0.986,2.509l1.615-0.181l1.166-0.983l0.898-1.613l-0.27-2.779l0.27-1.791l1.076-0.448
		l1.434,1.433l3.229-0.447l-0.18-1.972l1.705-1.164h1.524l-0.179-3.943l1.793,1.882l4.306-4.57l-0.808-0.807l1.976-2.15
		l-0.451-0.446l0.451-1.882l-0.182-0.091l1.436-1.522l-2.332-2.6l-0.18,0.089l-0.807,0.092l-0.809,0.446v-0.089h-0.088l0.178-1.255
		l0.27-0.358l0.18-0.895l0.27-0.36l0.986-0.445l0.09-0.181l1.615-0.896v0.089l0.18-0.181l0.537-0.177l0.449-0.36l1.973-3.045
		l0.27-1.525l0.538-0.446l0.358-0.718l0.359-1.702v-1.166l0.268-0.895l0.539-1.076l-0.539-1.433L412.771,350.606z"/>
	<path id="Shape_1_29_" fill="#7DB721" stroke="#000000" stroke-width="0.5" stroke-miterlimit="10" d="M571.266,365.392
		l-0.181-0.089v-0.357l-0.267-0.181l-0.091-0.537l0.091-0.896l-0.182-0.449l-0.538-0.537l-0.628-0.896h-0.539l-0.896-1.255
		l-0.719-0.089l-0.09-0.269l-0.358-0.181l-0.271-0.448l-0.448-0.358l-1.253-0.626l-0.627-0.091l-0.449-0.538l-0.181-0.089
		l-0.271-0.806l-0.357-0.27l-1.257-0.357l-0.715,0.089l-0.271-0.449l0.091-0.626l-0.268-0.18l0.177-1.254l-0.267-0.897l-0.272-0.178
		l-0.266-0.628l0.091-0.538l-0.362-0.627l-0.09-0.626h-0.177l-0.182-0.449l-0.447-0.357l-0.181-0.538l-0.357-0.448l0.18-0.357
		l-0.089-0.36l-0.271-0.269l-0.091,0.18l-0.176-0.269v-0.269l-0.272-0.27l-0.09,0.181l-0.538-0.36l-0.266-0.357l-0.811-0.449
		l-0.267,0.092l-0.448-0.36l-1.614-0.446v-0.27l-0.182-0.18l-0.181,0.18h-0.177v0.178l-0.985-0.178l-0.181,0.178l-0.629,0.092
		l-0.358,0.626l-0.271-0.18l-0.176-0.357l-0.362,0.357l-0.357-0.089l-0.985,0.089l-0.271-0.178v-0.091l-0.176-0.089l0.086-0.358
		l-0.086-0.091l-0.091,0.091l-0.181-0.091l-0.538,0.091l0.181,0.178l0.091-0.089v0.27l-0.629,0.18l-0.091,0.269l-0.357-0.091
		l0.176,0.448l-0.266,0.09l-0.181,0.269l0.089,0.18l0.092-0.089l0.177,0.089l-0.087,0.089l-0.361,0.091v0.27h0.18l0.091,0.269
		l-0.538-0.091l-0.09,0.18l-0.091-0.357h-0.091l-0.09,0.178h-0.087v0.091l0.177,0.269l-0.177,0.089l-0.088-0.18l-0.539,0.18h0.09
		l0.086,0.449l-0.267-0.27l-0.182,0.089l0.362,0.181v0.178l-0.538,0.18l0.086,0.18l-0.086,0.089l-0.182-0.448l-0.181,0.091
		l-0.176-0.091l-0.182,0.269l0.182,0.18h-0.182l-0.446-0.357l-0.091,0.089l0.091,0.269l-0.272,0.089l-0.09-0.269h-0.086v0.269
		h-0.181l-0.091-0.269h-0.181l0.09,0.359h-0.176l-0.362,0.27l-0.628-0.092l0.091,0.27l-0.63-0.089l-0.176,0.269l-0.182-0.357
		l-0.09,0.089v-0.089l0.182-0.092v-0.089l-0.182,0.089l-0.63-0.089v-0.18h0.183v-0.089l-0.357-0.18l0.091,0.269h-0.091l-0.091-0.178
		l-0.271,0.089l-0.268,0.089v0.18l-0.181,0.089l-0.091-0.269l-0.267-0.178l-0.357,0.178l-0.18,0.269l-0.449-0.089l-0.181,0.358
		l-0.357-0.178l-0.091,0.357l-0.271-0.089l0.09-0.18l-0.176-0.089l0.086-0.27l-0.177-0.091l-0.18,0.091l-0.091,0.538h0.091v0.089
		l-0.269-0.089l-0.271-0.091l-0.357-0.27l-0.362,0.181l0.091-0.27l-0.357-0.089l-0.091-0.18l-0.179-0.089v0.089l-0.179-0.089
		l-0.537,0.269v-0.091h0.091l0.086-0.715l-0.177,0.088l-0.362-0.269l-0.086,0.089l0.177,0.36l-0.091,0.269l-0.086-0.359
		l-0.627-0.358l0.088-0.448l-0.088,0.18l-0.183,0.089l-0.181-0.357l0.091-0.089l0.09-0.269l-0.356-0.092l-0.182,0.27l-0.091-0.178
		l-0.628,0.089v-0.181l-0.266,0.181l0.089,0.18l-0.271-0.091v0.091h-0.446v-0.091l-0.449,0.091v-0.091l-0.538-0.089l0.448-2.777
		l-0.091-0.181l3.229-2.15l0.9-1.075l2.957-2.777l0.09-0.628l-0.271-0.357l-0.356-0.181l-0.091-0.178l-0.268-0.18l-0.09-0.268
		l-0.182-0.09l0.182-0.629l-0.539-1.075v-0.446l-0.538-0.449l-0.27,0.089l-0.269-0.178l0.09-0.36l0.091-0.537l-0.271-0.357
		l-0.539,0.269l-0.09,0.269l0.181,0.896l-0.181,0.449l-0.268,0.089l-0.271-0.358l0.09-0.269l-0.181-0.357l-0.448-0.092l-0.266,0.36
		l0.09,1.075h-0.182l-0.09-0.629l-0.448,0.092l-0.09,0.807l-3.049,0.715l-2.424-1.791l-0.176-0.807l-0.363-0.18v-0.627l-0.176-0.18
		l-1.076-0.18l-0.719,6.273h-0.182l-0.09,0.27h-0.086l-0.09,0.269l-0.271,0.089l-0.448,0.181l-0.182-0.092l-1.075,0.449l-2.239,2.33
		l-0.091-0.091l-0.09-0.269l0.356-0.538l0.09-0.446l-0.266-0.181l-0.629,0.538l-0.361,0.089l-0.087,0.269l0.087,0.093l-0.087,0.356
		l-0.361,0.089l-0.091-0.178l-0.267-0.091v0.448l-0.271,0.18l-0.448-0.359l-0.267-0.089l-0.091,0.269l0.091,0.449l0.629,0.896
		l-0.091,0.448l-0.447,0.178l-0.629-0.538l-0.181-0.537l-0.448-0.269l-0.18,0.448l0.271,0.986l-0.271,0.269l-0.448,0.089
		l-0.182-0.18l-0.176-0.983l-0.271-0.181l-0.538,0.089l-0.267,0.449l0.714,0.806l-0.537,1.794l-0.357,0.178v0.448l-0.182,0.18
		l-0.624,0.089l-0.81-0.448l-0.357,0.269l0.268,0.986l-0.177,0.627l-0.452,0.091l-0.268-0.36l-0.271-0.178l-0.447-0.091
		l-0.177,0.269l-1.348-0.357l-0.183-0.18l-0.894,0.807l-0.091-0.178l-0.448-0.27l-1.076,0.27l-0.896,0.357l-0.81-0.18l-0.805-0.358
		l-0.36-0.269l-0.269-0.357l-0.271-0.897l-0.268-0.178l-0.271,0.089l-0.087,0.18h-0.538v-0.091l-0.271-0.089l-0.09-0.18l0.09-0.447
		l0.448-1.435l-0.091-0.807l-0.175-0.446l-0.449-0.181l-0.452,0.089l-0.625-0.089l-1.257,0.089l-0.448-0.357l-0.09-0.449
		l0.448-0.715h0.09l0.091-0.18l-0.091-0.449l-0.628,0.092l0.271,0.177l0.176,0.27l-0.09,0.269l-0.625,0.091v0.089l-0.36,0.269
		l-0.539-0.089l-0.091,0.178l0.361,0.27l0.091,0.359l-0.452,0.27l-0.086,0.269l0.268,0.269l0.719-0.18l0.267,0.18l-0.177,0.269
		l-0.538,0.178l0.178,0.18l0.18,0.807l0.538,0.089l0.09,0.27l-0.18,0.18l-0.357-0.18l-0.091,0.269l-0.628,0.18l-0.448,0.807
		l-0.357,0.18l-0.271-0.448l-0.268-0.089l-0.271,0.446l-0.896,0.269l-0.181,0.36l0.09,0.895l-0.357,0.27l-0.271-0.089l-0.181-0.807
		l-0.177-0.091l-0.448,0.18l0.358,0.896l-0.091,0.269l-0.268,0.449h-0.271l-0.805-1.702l-0.181-0.091l-0.18,0.091L490,347.918
		l-0.271,0.18l0.09,0.807l-0.181,0.181l-0.805,0.089l-0.356,0.626l0.086,0.092l0.809,0.178l0.091,0.359l-0.362,0.716l-0.357,0.18
		l-0.18-0.089l-0.178,0.269l0.178,0.896l-0.269,0.357l0.091,0.091l0.092,0.538l0.714,0.807l0.181,0.807l-0.72,0.626l-0.985,0.449
		l0.181,0.447l-0.271,0.717l-0.176,0.449l-0.811-0.092l-0.18,0.359l0.271,0.179l0.538-0.179l0.268,0.716l0.09,1.075l-0.267,0.36
		l-0.271-0.091l-0.358-0.538l-0.356,0.091v0.178l0.086,0.36l0.271-0.091l0.267,0.18l-0.086,0.357l0.176,0.27l0.182-0.09l0.091,0.09
		l-0.091,0.269l0.091,0.628l0.896,0.716v0.269l-0.267,0.091l-0.091-0.448l-0.447-0.089l-0.271,0.537l-0.539,0.358l-0.09,0.18
		l0.09,0.627l0.181,0.089l0.358-0.089l0.181-0.27l0.357,0.181l0.271,0.537l-0.091,0.178l-0.271,0.092l-0.176-0.181h-0.271
		l-0.182,0.269l0.453,0.627l-0.091,0.36l-0.539-0.181l-0.36,0.089v0.449l0.18,0.269l0.181,0.986l0.448,0.269l-0.09,0.716l0.447,0.36
		v0.177l0.987,0.181l1.347-0.089l0.358,0.896l5.381-0.627l-0.267,3.673l1.343-0.178v0.089l0.448,1.433l0.271,1.255l-0.181,0.181
		l0.271,0.895l0.176-0.089l1.258-0.18l0.09,0.18l0.986,0.089v-0.089l0.628-0.717l1.524-0.987l0.896-0.089l0.628-0.537l0.091,0.089
		l0.182-0.089l0.538-0.449l0.448-0.626l1.704-1.971l0.267,0.538l-0.091,0.269h0.091l0.091,0.178l-0.091,0.629l1.077,0.537
		l0.536-2.511l1.978-2.15l0.538,0.629l2.42,2.777l1.796-1.075l0.715-0.896l0.809,0.715l1.344,2.331l-0.176,0.089l-0.449,0.18
		l0.449,2.6l1.881,0.807l0.538-0.091l0.271,0.448h0.09v-0.269l0.357-0.089l0.267-0.449l0.182-0.089v-0.091l0.719-0.357l0.09-0.181
		h0.267v-0.089h0.272l-0.09-0.089l0.176-0.18l-0.086-0.357l0.086-0.629l0.271-0.269l1.343,3.137l3.767,0.537l0.091-0.089
		l0.091,0.179l0.447-0.27l0.81,0.18l0.538-0.537l-0.181-0.18l0.448-0.358l0.629,0.09v-0.09h-0.092l0.182-0.18l0.357,0.091v-0.091
		h0.181v-0.089l0.357-0.269l0.181-0.449l0.357-0.269l0.629,0.091l0.447-0.629h-0.63l-0.084-0.177l0.539-0.092l0.086-0.178
		l0.45,0.089l0.268,0.357l0.09-0.269l-0.894-0.983l-0.812-0.181l-0.09,0.181l0.271,0.715l-0.271,0.091l-0.804-0.897h-0.272
		l-0.09-0.178l0.362-0.269v-0.269l0.266-0.181l0.361,0.09l0.087-0.179l-0.267-0.806l0.18-0.181v-0.18l-0.361-0.269l-0.447,0.18
		l0.09,0.538l-0.181,0.089l-0.176-0.178l0.176-0.629l-0.176-0.358l-0.271-0.18l-0.092-0.626h-0.266l-0.181-0.181l0.09-0.089
		l0.267,0.181l0.453-0.092l0.086-0.446l-0.268-0.18l-0.182-0.27l0.272-0.537l-0.362-0.357h-0.267l-0.271,0.537l-0.268-0.091
		l0.092-0.627l0.267-0.18l0.09-0.178l1.434-0.448l1.075,2.062l2.068,0.715l0.896-0.626l3.768,0.269l1.523-0.896l0.81,1.521
		l-2.424,1.345l0.719,1.524l3.587-1.613l6.638-4.301l2.511,5.287l-0.804,0.538l-0.182,0.446l0.448,2.33l0.537,1.434l0.629-0.538
		l1.344-0.807l0.181-0.269l-0.091,0.986l8.435-5.557l4.572-3.226l2.334-0.984l0.091-0.448l0.356-0.449l-0.09-0.089L571.266,365.392z
		"/>
	<path id="Shape_1_28_" fill="#7DB721" stroke="#000000" stroke-width="0.5" stroke-miterlimit="10" d="M628.313,271.574
		l-0.091,0.091h0.091V271.574z M627.951,278.116l-0.086,0.089h0.086V278.116z M628.853,283.762l-0.271-0.359l-0.177-0.09
		l-0.091-0.179h0.091l0.087-0.358l-0.087-0.18l0.177-0.089l-0.09-0.089l0.09-0.359l-0.177-0.537l-0.361-0.179l-0.091-0.538h0.091
		l0.091-0.269h0.09l-0.181-0.359l-0.177-0.09v-0.448h-0.09l-0.183-0.447h0.091v-0.09h-0.091v-0.09l0.357-0.18h-0.086l0.086-0.27
		h-0.086l0.086-0.179h-0.086v-0.09v-0.09v-0.181h-0.091l0.091-0.088l-0.091-0.181h0.177l-0.086-0.178h0.086v-0.091h-0.086v-0.09
		h0.177l-0.091-0.357h-0.086l0.177-0.09v-0.27l-0.177,0.09v-0.358h0.086l-0.086-0.179l0.177-0.09h-0.091v-0.358h0.271l-0.09-0.181
		h-0.091l0.091-0.088l-0.182-0.09v-0.18h-0.086l0.086-0.18h-0.086v-0.09h0.086l0.091-0.27h-0.177v-0.089h0.177v-0.181l-0.177-0.09
		l0.086-0.09h-0.176v-0.179h-0.183l0.091-0.179h0.092l-0.092-0.182h0.092v-0.088h-0.092l0.092-0.181h-0.092l0.092-0.089l-0.092-0.18
		l0.182-0.09v-0.18h-0.182v-0.09h-0.181v-0.27l0.181-0.088v-0.092h-0.271v-0.089h0.271v-0.09h0.092v-0.09l0.356-0.091v0.091
		l0.09-0.179l-0.09-0.092v-0.089h0.09v-0.089l-0.181-0.091v-0.089h-0.091v-0.18h-0.087l0.178-0.27l-0.091-0.18h-0.087l0.087-0.18
		h-0.087v-0.09h-0.09v0.09l-0.271-0.09v-0.09h0.271l-0.447-0.27v-0.088l0.177-0.09h-0.091v-0.27h0.091l-0.091-0.092l0.091-0.178
		l0.271,0.178h-0.091v0.092h0.181l0.178-0.27h-0.178v-0.091h0.178v-0.089h-0.178l0.087-0.18h-0.087l0.087-0.447h0.091v-0.27
		l0.447-0.09v-0.09l-0.178-0.09l0.357-0.27l-0.09-0.18l-0.178-0.089v-0.091h0.088v-0.089h-0.088v-0.09l-0.181,0.09l-0.09-0.09h0.09
		v-0.358l-0.09,0.09l0.09-0.358h0.181v-0.089l0.178-0.09l-0.09-0.091h0.271v-0.269h-0.091v0.09h-0.09v-0.09v-0.09h0.09v-0.09
		l-0.18-0.09v-0.089h-0.088l0.088-0.181l-0.088-0.357l-0.271-0.09l-0.091-0.27h0.181v-0.178h-0.181l0.091-0.271h-0.269v-0.09h0.086
		l-0.086-0.358l0.178,0.09l-0.092-0.269h-0.176l0.176-0.091l-0.086-0.18h0.178v-0.09l0.181-0.089l-0.09-0.269h-0.091v0.089
		l-0.178,0.09v-0.179h-0.09l0.09-0.09l-0.181-0.27h0.091l0.176-0.359l-0.267-0.179l-0.448-0.179v-0.09h-0.09v-0.09h0.09v-0.09h-0.09
		v-0.09h-0.182l-0.09-0.18l-0.357-0.09v-0.09l-0.181,0.09l0.091-0.18l-0.178-0.09l-0.09-0.447h-0.182l-0.091,0.18l-0.09-0.091v0.181
		h-0.177v-0.09h-0.092v0.179h-0.09l-0.091-0.27l-0.091,0.091v-0.091l0.182-0.27l0.182,0.091l-0.182-0.27h0.182v-0.09h-0.182
		l0.09-0.09l-0.181-0.09l0.091-0.18l-0.182-0.089l0.091-0.271h0.091v-0.269l-11.031-0.358l-8.253-0.09l-2.063-1.971l-5.472-4.839
		l-13.455-3.405l-12.021-3.046l-1.614-8.962l-2.329,0.449l-0.451-3.047l-4.664,0.09l-4.123,19.086l-7.625,29.301l0.181,0.448
		l0.986,0.807l0.09,0.27l-0.181,1.433l-1.168,0.538l0.092,1.613l0.267,0.358v0.536l0.452,0.897l-0.719,1.074l0.719,0.357
		l0.357,0.627l-6.998,31.184l-11.211-4.929l-8.162-1.164l-0.72,10.035l-2.329,5.196l0.986,0.091l0.177,0.178l0.091,0.719l0.361,0.18
		l0.176,0.807l2.425,1.791l3.049-0.715l0.09-0.807l0.448-0.092l0.091,0.629h0.181l-0.091-1.075l0.269-0.36l0.446,0.092l0.182,0.27
		l-0.091,0.269l0.182,0.358l0.268,0.089l0.271-0.358l-0.091-0.269l-0.091-0.986l0.63-0.356l0.271,0.356l-0.181,0.808l0.181,0.269
		l0.357-0.089l0.447,0.357l0.091,0.359l0.538,1.253l-0.182,0.629l0.182,0.09l0.091,0.269l0.177,0.089l0.181,0.27l0.357,0.181
		l0.271,0.356l-0.091,0.63l-2.958,2.775l-0.898,1.075l-3.229,2.15l0.09,0.181l-0.446,2.777h0.446l0.091,0.18l0.448-0.091v0.091
		h0.447v-0.091l0.271,0.091l-0.09-0.18l0.268-0.182v0.182l0.628-0.089l0.091,0.178l0.091-0.178l0.357-0.093l0.09,0.182l-0.181,0.269
		l0.091,0.27l0.181,0.089l0.182-0.27l-0.091,0.448l0.628,0.358l0.088,0.358l0.09-0.18l-0.178-0.357l0.088-0.181l0.271,0.269
		l0.267-0.088l-0.086,0.715h-0.09v0.092l0.447-0.27l0.268,0.089v-0.089l0.181,0.089l0.091,0.181l0.357,0.089l-0.092,0.27
		l0.362-0.181l0.628,0.359l0.268,0.09v-0.09h-0.09l0.09-0.537l0.182-0.092l0.177,0.092l-0.086,0.27l0.176,0.089l-0.09,0.181
		l0.271,0.089l0.091-0.357l0.356,0.178l0.182-0.357l0.447,0.089l0.091-0.178l0.447-0.27l0.268,0.178v0.181l0.182,0.089l0.09-0.27
		l0.269-0.089l0.271-0.089l0.091,0.178h0.091l-0.091-0.269l0.268,0.091l0.091,0.178h-0.182v0.181l0.362,0.089l0.447-0.089v0.089
		l-0.182,0.092v0.089l0.09-0.089l0.182,0.357l0.177-0.27l0.629,0.089l-0.091-0.27l0.539,0.092l0.451-0.27h0.177l-0.091-0.359h0.182
		l0.091,0.269h0.181v-0.269h0.086l0.092,0.269l0.271-0.089l-0.091-0.269l0.091-0.089l0.176,0.178l0.452,0.18l-0.181-0.18
		l0.181-0.269l0.087,0.091l0.271-0.091l0.181,0.447l0.086-0.089l-0.086-0.18l0.447-0.089l0.091-0.27l-0.36-0.181l0.091-0.089
		l0.356,0.27v-0.359l-0.178-0.09l0.539-0.18l0.09,0.18l0.177-0.089l-0.091-0.091l-0.086-0.269h0.086l0.091-0.179h0.091l0.091,0.357
		l0.091-0.18l0.538,0.091v-0.18l-0.271-0.09v-0.27h0.183l0.267-0.18l-0.177-0.089l-0.09,0.089l-0.092-0.089l0.092-0.27l0.356-0.181
		l-0.178-0.448l0.356,0.091l0.092-0.269l0.629-0.181v-0.27l-0.091,0.089l-0.182-0.178l0.182-0.091l0.538,0.091l0.091-0.091
		l0.086,0.091l-0.086,0.357l0.176,0.089v0.092l0.271,0.178l0.63-0.089l0.625,0.089l0.45-0.357l0.178,0.357l0.271,0.18l0.356-0.626
		h0.356l0.453-0.27l0.985,0.178v-0.178h0.177l0.181-0.181l0.182,0.181v0.27l1.615,0.446l0.446,0.36l0.269-0.093l0.809,0.449
		l0.269,0.357l0.538,0.359l0.091-0.181l0.271,0.27v0.27l0.178,0.269l0.09-0.18l0.271,0.269l0.091,0.36l-0.182,0.357l0.357,0.447
		l0.181,0.538l0.448,0.357l0.181,0.449h0.176l0.091,0.626l0.362,0.627l-0.09,0.538l0.267,0.628l0.271,0.178l0.267,0.897
		l-0.176,1.254l0.268,0.18l-0.092,0.626l0.272,0.449l0.714-0.089l1.258,0.356l0.356,0.271l0.271,0.806l0.183,0.089l0.446,0.538
		l0.629,0.091l1.252,0.626l0.448,0.358l0.271,0.448l0.356,0.181l0.092,0.269l0.72,0.09l0.895,1.255h0.539l0.628,0.896l0.538,0.537
		l0.183,0.449l-0.09,0.896l0.09,0.537l0.176,0.09l0.271-0.09v-0.088l0.268-0.181l0.81-0.448l0.986-0.178l0.447-0.182l0.091-0.18
		l0.896-0.446l7.269-6.273l0.629-0.446l0.447-0.807l0.985-1.166l-0.091-0.716l0.091-0.27l0.357-0.18v0.089h0.09l0.448,0.18
		l0.36-0.089l0.088,0.089h-0.088l0.178,0.089v-0.089h0.271l0.091,0.18l0.177,0.09l0.36-0.27l0.448-0.627l0.268-0.18l4.129,5.019
		l0.177,0.447l3.229-2.777l2.334-11.021l2.873-13.261l-0.63-0.093l-0.271,0.897h-1.525l-0.447,0.269l-5.83-0.984l0.092-0.538h0.087
		v0.089h0.09l-0.177-0.446l-0.092-0.449l-0.18-0.089l0.09-0.18l-0.181-0.357l-0.177,0.09l-0.182-0.358l0.092-0.269h0.09l-0.09-0.359
		h0.09l0.086,0.269l0.361-0.178v0.27l0.356-0.092v0.092l0.183,0.089l-0.092-0.089l0.092-0.27l0.176-0.091l0.091,0.269l0.091-0.089
		l0.357-0.089l0.181,0.27l0.181-0.359l-0.09-0.447l0.266-0.091l-0.086-0.269l-0.09-0.447h0.09l0.448,0.178l0.177-0.269l2.334-5.733
		l4.844,0.18l0.81-2.868l4.931-16.936l0.271-2.777l0.181,0.09l0.357,1.164l0.448,0.18l0.356,2.063l1.885-0.181l1.435-4.211
		L611.095,297l0.267-0.27l0.629,0.27l0.448-0.09l-0.091-0.09l1.075-0.179l0.812,0.179l-0.271,0.448l-0.356,0.627l-0.182,0.09v0.717
		l0.182,0.896l0.447,0.716l0.539,0.359l0.446-0.091l0.271-0.447l-0.183-1.345l0.539-0.985l0.628-1.164l0.271-0.091l0.267,0.091
		v0.269l-0.447,0.627l-0.356,0.27v0.18l0.176,0.271l1.077-0.359l0.448,0.269v0.092l0.537,0.089l1.167-0.808l-0.092-0.447
		l-0.356-0.18l-0.356,0.18l-1.886-1.613l1.349-8.243l3.586,1.792l6.276-1.792l0.629-2.419l-0.09-0.27h0.09v-0.09l0.182-0.091
		l0.267-0.536L628.853,283.762z M627.865,278.025l0.086-0.27l-0.086,0.18V278.025z"/>
	<path id="Shape_1_27_" fill="#7DB721" stroke="#000000" stroke-width="0.5" stroke-miterlimit="10" d="M459.143,251.504
		l-12.559,4.032l-15.068-0.36l-4.216-0.895l-7.624,0.18l-3.857-0.18l-20.899-1.256l-5.202,0.629l-1.525-3.316l-0.896,2.061
		l-4.574,2.151l-1.615,3.943l-0.807,5.555l-1.076,4.479l-2.959,0.449h-2.154l0.359,2.957l-2.691,3.226l-4.664,3.136l-3.498,0.537
		l-4.663-0.178l-2.063,0.537l-1.973,0.807l-0.539,1.434l-0.27,4.57l0.09,4.48l-0.807,5.196l-1.256,3.494l-1.076,2.24l3.049,2.062
		l3.05,2.599l1.884,2.688l1.614-1.344l2.153-0.091l0.537-0.716l-0.447-1.793l-0.27-1.792l3.588-1.164l1.077,1.255l0.808,1.701
		l0.357,1.613l1.436,0.18l1.524-0.269l1.884-2.42l2.152-1.612l2.961-1.076l2.332-0.09l2.063,1.166l1.525,0.447l2.063-1.613
		l1.793-0.447l3.859,0.357l10.583-0.269l4.575,0.269l8.342,0.09l5.201,0.627l4.038,1.166l2.958-8.422l0.181-4.213l-3.587-2.062
		l-2.153-0.538l-0.808-2.866v-3.315l1.523-0.358l0.991-2.24l0.084-2.778l0.991-2.061l5.11-1.882l5.739-1.075l3.948,0.807
		l2.424,0.088l0.267-1.791l0.986-1.703l3.857-1.881l3.32-0.088l3.586,0.715l3.857,1.076l0.538-2.599l1.077-2.062l2.152,0.181
		l0.629-12.277L459.143,251.504z"/>
	<path id="Shape_1_26_" fill="#7DB721" stroke="#000000" stroke-width="0.5" stroke-miterlimit="10" d="M431.338,313.421
		l-1.524-4.928l-2.334-3.495l-2.689-2.061l-4.038-1.166l-5.201-0.627h-4.037l-8.88-0.358l-10.583,0.269l-3.859-0.357l-1.793,0.447
		l-2.063,1.613l-1.525-0.447l-2.063-1.166l-2.332,0.09l-2.961,1.076l-2.152,1.612l-1.884,2.42l-1.524,0.269l-1.436-0.18
		l-0.357-1.613l-0.808-1.701l-1.077-1.256l-3.588,1.165l0.27,1.792l0.447,1.793l-0.537,0.716l-2.153,0.091l-1.614,1.344l2.422,3.853
		l0.628,5.019l0.269,4.839l-0.807,5.285l-1.884,4.032l-1.614,2.688l-3.32,2.868l3.23,0.537l2.512,1.256l4.305,0.446l2.781,0.538
		l1.705-0.447l6.457-2.241l2.334,1.436l2.867,3.134l5.113-0.895l5.742-3.138l3.768-2.688l2.152-1.253l2.96-0.898l1.884,0.092
		l2.33-0.27l6.281,1.076v0.089l0.178,0.269l0.27-0.089l-0.447,1.701l1.076,0.449l0.627-0.269l-0.357-0.718l0.088-0.357l-0.088-0.269
		l0.446-0.36l-0.089-0.178l0.089-0.629l-0.177-0.089l0.357-0.807l0.268,0.089l0.27-0.357l0.27,0.089l0.09-0.089l0.09-0.269h0.27
		l0.27-0.181l0.447-0.178l0.269-0.269H416v0.089l0.27,0.089l0.446-0.089l0.181,0.089l0.18,0.629l0.716-0.18v-0.09l0.718-0.18
		l0.18,0.27l1.078-0.986h0.178l0.09-0.627l0.27-0.18l0.539-0.089l0.088-0.18l0.27-0.179l0.089-0.27h0.63l0.898-0.268l4.93-0.091
		v-1.791l3.5-5.736l0.181-4.659L431.338,313.421z"/>
	<path id="Shape_1_25_" fill="#7DB721" stroke="#000000" stroke-width="0.5" stroke-miterlimit="10" d="M496.011,341.915
		l0.357-0.089l0.181-0.27l0.625-0.091l0.09-0.178l-0.09-0.27l-0.356-0.269v0.088l-0.183,0.089v-0.089h-0.086v0.089l-0.629-0.177
		l-0.271-0.36l-0.092-0.627l-0.267-0.626l-0.538-0.092l-0.373,0.301l-0.074,0.148h-0.092l-0.18,0.269l-0.629,0.896l-0.447,0.269
		l-0.448-0.089l-0.356-0.448l-0.092-0.716l0.183-0.806l0.356-0.629l0.357-0.538l0.09-0.446l-0.181-0.359l-0.177-0.09l-1.438-0.626
		l-0.268-0.359l-0.091-0.357l0.181-1.075h0.091l0.177-0.448l-0.446-0.357l-0.299,0.119l-0.06,0.061l-0.071-0.008l-0.02,0.008
		l0.017-0.008l-0.735-0.083l-0.267-0.356l-0.362-0.986l-0.806-0.358l-0.447-0.895l-0.271-0.182l-0.447-0.18l-0.448-0.356
		l-0.181-0.449l-0.267-0.178l-0.182-0.27l-0.268-0.896l-0.719-0.896l-0.63-0.356l-1.075-0.093l-0.182,0.897l-0.356,0.179
		l-0.357-0.089l-0.091-0.181h-0.09l-0.09-0.27l-0.179-0.627l0.896-0.985l-0.091-0.089h0.091v-0.18h-0.091v-0.358l-0.182-0.269v0.089
		l-0.086-0.178l-0.719-0.359v-0.09l-0.448-0.357l-0.181-1.166l0.271-0.627l0.177-0.089l0.182-0.358l0.18-0.808l-0.271-0.716
		l-0.896-0.359l-0.271-0.446l-0.177-0.09l-0.182-0.718l0.09-0.718l0.63-0.716l0.625-0.27l0.629,0.18l0.536,0.357l0.361,0.629
		l0.715,0.536l0.448-0.18l0.091-0.896l-0.356-0.537l0.09,0.089l-0.447-0.538l-0.539-0.357v-0.091l-0.537-0.178l-0.81,0.089h0.091
		l-0.811,0.27l-0.896-0.27l-0.268-0.448l0.356-1.612l0.09-0.627h-0.09v-0.18l-0.446-0.358l-0.092,0.09l-0.356-0.09h-0.452
		l-0.357-0.447l0.092-0.271l0.537-0.357l0.091-0.27l-0.181-0.269l-0.356,0.09l-0.183,0.537l-0.267,0.269l-0.181-0.089l-0.092-0.448
		l0.271-0.807l0.267-0.179v-0.09l0.357-0.091l0.719-0.627l0.183-0.628l-0.361-0.896l-0.087-0.627l0.715-1.523l-0.267-0.357
		l-0.811-0.181l-0.356-0.356l-0.092-0.628l0.448-0.538l0.719-0.09l0.538,0.27l0.72-0.18l0.268-0.358l-0.091-0.269l-0.177-0.089
		v-0.091l-0.899-0.09l-1.167-0.356l-0.267-1.256l-0.182-0.181l-0.715-0.089l-0.182,0.27v-1.075l-2.152-0.27l-0.271-0.447
		l-0.716,0.179l-0.09-0.179l-0.81-0.447l-0.086-0.27l-0.092-0.718l0.448-0.356l0.538,0.089l0.538,0.089l0.448-0.27l-0.091-0.357
		l-0.178-0.089l-0.09-0.181l-1.796-0.09l-0.538-0.357l-0.181-0.27l0.091-0.717l0.09-0.807l-0.446-0.627l-0.357,0.09l-1.076,0.807
		l-0.539-0.18l-0.181-0.18l-0.181-0.808l0.181-0.446l0.72-0.091l0.537-0.179l0.087-0.448l-0.267-0.358l-0.896-0.18l-1.166-0.984
		l-0.361-0.271l-0.985,0.181l-0.629,0.09l-0.447-0.271l-0.091-0.537l0.181-0.985l0.271-0.18l0.176-0.627l0.091-0.537l-0.181-0.627
		l-0.447-0.629l-0.715-0.447l-0.629,0.18v0.18l-0.447,0.27l-0.811,0.179l-0.357-0.179l-0.36-0.985l-0.177-1.792l-0.271-0.18
		l-0.091-0.18l-1.614-0.718l-0.086-0.716l1.252-0.896l0.091-0.447l-0.181-0.269l-0.447-0.181l-0.357,0.09l-0.356,0.27l-0.719,1.791
		l-0.183-0.179l-0.805,0.091l-0.271-0.449l0.09-0.447l-0.18-0.447l-0.268-0.718l0.181-0.626l0.448-0.27v-0.091h0.09l0.086-0.446
		l-0.086-0.719l-0.271,0.09l-0.627-0.984l-0.448-0.359l-0.181-0.269l-0.625-0.357l-0.09-0.18l-0.539-0.271l0.178-0.269l0.361-0.179
		l0.985-0.09l0.356,0.269l0.361,0.718l0.715,0.27l0.362-0.18l0.895,0.18l0.269,0.269l0.719-13.799l-2.152-0.181l-1.075,2.063
		l-0.539,2.598l-3.857-1.074l-3.586-0.717l-3.32,0.09l-3.856,1.882l-0.986,1.702l-0.267,1.791l-2.424-0.088l-3.948-0.808
		l-5.739,1.075l-5.11,1.882l-0.989,2.062l-0.086,2.777l-0.99,2.239l-1.523,0.358v3.315l0.809,2.866l2.152,0.538l3.587,2.062
		l-0.181,4.213l-2.958,8.422l2.69,2.062l2.334,3.495l1.522,4.928l0.092,3.764l-0.182,4.659l2.42-3.941l14.621-6.9l3.139,19.624
		l1.349,0.089l1.881,1.436l0.629-0.807h0.448v-0.537l0.81-0.448l0.72,0.626h0.356l0.09,0.181h6.816v6.184h-0.806l0.177,3.583
		l0.629,0.092l3.947,4.39l-1.349,1.164l-3.317,1.613l0.09,0.18l0.985,0.27l0.271,0.896l0.267,0.091l0.539-0.807l0.451,0.089
		l0.269-0.269l2.242-0.181v0.359l-0.896,1.254l1.253,2.419l2.333-0.537l-0.447,3.585l0.896-0.18l0.091,0.807l-0.896,0.181
		l-0.809,0.716l0.357,1.075l-0.807,0.447l0.268,0.627l-0.086,0.448l0.177,0.449h-0.268l0.177,0.537l0.629,0.089l0.899-0.448
		l0.447-0.446l0.805-0.537v0.356l0.448,1.345h0.629l0.628,0.896l-0.267,0.896l1.077-0.269l0.623-0.091l1.076-0.538l0.899-0.357
		l0.268-0.269l1.258-0.357l0.719,0.089l1.972-0.357l0.448-0.448l1.167-0.357l0.985,0.179l0.355-0.089l0.721-0.449l0.627-0.808
		l0.093-0.536l-0.362-0.18l0.181-0.358l0.811,0.091l0.177-0.27l0.271-0.896l-0.183-0.446l0.719-0.269l0.986-0.808l-0.181-0.807
		l-0.715-0.807v-0.359l-0.182-0.271l0.268-0.356l-0.177-0.896l0.177-0.269l0.181,0.089l0.356-0.18l0.363-0.627l-0.092-0.448
		l-0.628-0.09l-0.267-0.181l0.267-0.536l0.81-0.09l0.268-0.27l-0.091-0.807l0.271-0.181l0.268-0.445l0.182-0.092l0.181,0.092
		l0.177,0.445l0.182,0.181l0.447,1.075h0.182l0.267-0.181l0.182-0.537l-0.357-0.896l0.357-0.181l0.268,0.092l0.181,0.807
		l0.182,0.089l0.447-0.27l-0.091-0.718l0.091-0.445l0.356-0.182l0.629-0.18l0.183-0.357l0.266-0.089l0.362,0.537l0.356-0.18
		l0.448-0.807l0.537-0.09l0.182-0.358l0.268,0.18l0.271-0.18l-0.09-0.271l-0.538-0.089l-0.091-0.626l-0.268-0.359l0.448-0.09
		l0.268-0.356l-0.178-0.181l-0.809,0.181l-0.183-0.181l-0.086-0.269l0.447-0.27l0.091-0.357l-0.452-0.36l0.092-0.178
		L496.011,341.915z M494.307,339.407l0.074-0.061l0.017-0.03L494.307,339.407z M490.599,333.701l0.03-0.03l-0.164,0.083h0.003
		L490.599,333.701z"/>
	<path id="Shape_1_24_" fill="#7DB721" stroke="#000000" stroke-width="0.5" stroke-miterlimit="10" d="M489.1,370.948l0.091-0.27
		l1.076-0.806l-0.357-0.896l-1.348,0.09l-0.985-0.181v-0.178l-0.448-0.359l0.091-0.716l-0.448-0.269l-0.091-0.629l-0.271-0.626
		v-0.449l0.181-0.089l0.719,0.18l0.091-0.359l-0.452-0.627l0.181-0.269h0.181l0.268,0.18h0.18l0.183-0.18l-0.272-0.627l-0.357-0.18
		l-0.181,0.27l-0.181,0.089l-0.357-0.089l-0.09-0.27l0.09-0.537l0.538-0.358l0.181-0.448l0.447-0.09l0.183,0.538l0.267-0.091v-0.269
		l-0.896-0.716l-0.091-0.359l0.091-0.357l-0.091-0.27l-0.182,0.09l-0.176-0.18l0.086-0.358l-0.177-0.269l-0.361,0.09l-0.085-0.538
		l0.355-0.09l0.357,0.538l0.182,0.09l0.267-0.179l0.091-0.807l-0.176-0.808l-0.182-0.357l-0.448,0.179v0.448l-0.719,0.896
		l-0.267,0.18l-0.629,0.358l-0.985-0.179l-1.348,0.358l-0.448,0.447l-1.614,0.359l-0.985-0.09l-0.986,0.179l-0.538,0.358
		l-0.271,0.09l-1.076,0.538l-0.896,0.357l-1.524,0.359l0.267-0.897l-0.628-0.895h-0.629l-0.448-1.345v-0.358l-0.628,0.447
		l-0.624,0.538l-0.9,0.448l-0.629-0.09l-0.176-0.537h0.267l-0.177-0.448l0.086-0.448l-0.267-0.627l0.806-0.448l-0.357-1.075
		l0.809-0.717l0.896-0.179l-0.091-0.807l-0.896,0.179l0.447-3.584l-2.333,0.537l-1.253-2.419l0.896-1.254v-0.359l-2.243,0.18
		l-0.268,0.269l-0.451-0.089l-0.539,0.807l-0.267-0.091l-0.271-0.896l-0.987-0.269l-0.089-0.18l3.318-1.613l1.348-1.164
		l-3.947-4.389l-0.63-0.093l-0.176-3.583h0.806v-6.183h-6.816l-0.09-0.181h-0.357l-0.719-0.626l-0.81,0.448v0.538h-0.448
		l-0.629,0.806l-1.881-1.435l-1.348-0.089l-3.139-19.624l-14.621,6.9l-5.92,9.678v1.791h-4.572l-0.809,0.269l-1.077,0.09
		l-0.089,0.27l-0.27,0.179l-0.088,0.18h-0.181l-0.628,0.269l-0.09,0.627h-0.178l-1.078,0.986l-0.18-0.27l-0.718,0.18v0.09
		l-0.716,0.18l-0.18-0.629l-0.181-0.089l-0.179,0.089L416,331.7v-0.089h-0.63l-0.179,0.178l-0.269,0.091l-0.36,0.269l-0.447,0.09
		v0.089l-0.18,0.269l-0.27-0.089l-0.27,0.357l-0.268-0.089l-0.357,0.807l0.177,0.089l-0.089,0.629l0.089,0.178l-0.446,0.36
		l0.088,0.269l-0.088,0.178l0.357,0.897l-0.627,0.269l-1.076-0.449l0.447-1.701l-0.179,0.089l-0.181-0.089l-0.088-0.269h-0.27
		l-0.091,0.178l-1.884,1.075l-0.27,0.359l-0.178,0.807l0.089,2.15l0.538,1.253l-0.27,0.18l0.27,0.538l0.358,1.971l0.181,0.091
		l0.268,0.807l1.166,0.178l0.449,0.986l0.09,1.524l1.076,0.446l0.269,1.882l-0.269,0.986l0.092,1.164l-0.361,1.704l0.449,0.984
		l0.089,0.448l-0.177,0.27l-0.631,1.701v1.166l-0.178,1.165l-0.538,1.254l-0.538,0.447l-0.27,1.525l-1.975,3.045l-0.447,0.359h-0.18
		l-0.537,0.358v-0.09l-1.615,0.896l-0.09,0.179l-0.269,0.179h-0.181l-0.719,0.448l-0.268,1.075l-0.179,0.18l-0.269,1.434h0.088
		v0.089l0.359-0.269l0.629-0.179l0.807-0.18l2.33,2.6l-1.434,1.522l0.182,0.09l-0.451,1.882l0.451,0.447l-1.977,2.15l0.809,0.807
		l-4.307,4.57l-1.792-1.882l0.179,3.943h-1.524l-1.706,1.164l0.181,1.972l5.112-1.703l0.719,1.075l-0.359,0.18l1.166,1.523
		l1.615,0.716l-0.27,1.345h-0.538l-0.538,1.075l-2.781,0.091l0.09,2.688l-3.051,0.538l0.092,1.165l-0.092,0.985l-0.357,0.896
		l0.357,1.164l-0.447,2.062l0.09,0.089l-0.09,0.359l-0.359,0.447l-0.178,0.628l0.446,1.254l-0.269,0.717l0.091,0.896l-0.269,0.628
		l0.088,0.538h-0.18v-0.091h-0.089l-0.089,0.27h-0.27v0.091l-0.27,0.089v0.179l0.447-0.179l0.27,0.357l-0.27,0.181l0.092,0.357
		l0.178-0.089v0.089l0.27,0.09l-0.447,1.254l0.089,0.359l0.089,1.702l-0.447,1.433l-1.168,1.524l-0.178,2.15l-0.807,0.628
		l-0.719,2.956l0,0l2.242-0.447l0.539,0.716l5.65-3.495l1.615,2.42l0.449-0.358l1.973,2.688l1.794,1.793l2.153-1.704l0.089-0.269
		l-0.089-0.179l0.089-0.269l-0.089-0.179l0.089-0.359l0.269,0.09l0.36-0.627l0.179-0.628l0.986-0.716l0.627-0.359v0.09l0.539-0.09
		v-0.269l0.27-0.089l0.09-0.181h0.09l0.18-0.269h0.359l0.537-0.357l0.449,0.09v-0.18l0.357-0.179l0.181-0.27l0.269,0.089v-0.089
		l0.447-0.18l0.27-0.537h0.092v-0.18l0.715-0.358v-0.089l0.182,0.089v-0.269l0.088,0.18l0.18,0.089l0.181-0.089v-0.09l0.089,0.09
		v-0.09l0.358,0.09v-0.09h0.449l0.089-0.179h0.091l0.089-0.27l0.09,0.089l0.09-0.178l0.09,0.089v-0.089l0.357-0.27l0.18,0.179
		l0.451-0.179l0.268-0.447h0.27l0.177-0.359h0.271v-0.09l0.271-0.089l0.089,0.089l0.09-0.179l0.089,0.179h0.091l-0.091-0.089h0.181
		v-0.09l0.088,0.09l0.361-0.18v0.09l0.088-0.09v0.09h0.183v-0.09h0.175v-0.179l0.362-0.091v-0.088l0.177,0.088v-0.088l0.271-0.09
		l0.09-0.359l0.091,0.09v-0.09l0.084,0.09v-0.179l0.092,0.179h0.091v-0.09l0.809-0.269l0.539-0.089l0.086-0.18l0.361-0.179v-0.18
		h0.177v-0.18h0.091v-0.089l0.181,0.089l0.356,0.09v0.09l0.182-0.09l0.09-0.179l0.091,0.089l0.267-0.179v-0.179h0.091l0.091-0.181
		l0.09,0.091v-0.091l0.268-0.088v0.088h0.18l0.091-0.178l0.177,0.09v-0.09l0.361-0.091v-0.089h0.357v-0.089l0.268,0.089
		l-0.086-0.089l0.267-0.091h-0.091l0.091-0.269l0.091,0.09v-0.09h0.179v-0.09l0.179,0.09v-0.09l0.18-0.089l0.091-0.18l0.357-0.089
		v0.089l0.091-0.18l0.09,0.091v-0.091h0.091v0.091l0.177-0.18l-0.091-0.09l0.091-0.179h0.09l0.09-0.18l0.091,0.09l0.177-0.09V409.3
		h0.18l-0.091-0.091h0.183l0.09-0.269l0.269,0.091l0.271-0.18l0.267,0.357l0.629,0.538l0.09-0.089l0.267-0.09l1.978,2.15
		l0.175,0.447l0.091,0.896l0.361,0.447l0.715-0.178l0.091-0.18l0.271-0.09l0.088-0.179h0.089v-0.09h0.181v-0.09h0.091l0.09-0.179
		l0.268-0.09l0.09-0.179l0.091,0.089l0.448-0.358l-0.357-0.447l1.162-1.703h0.361l0.805-0.806h0.271l0.177-0.807l0.361-0.18
		l-0.181-0.627l0.629-1.344l0.181,0.089v-0.089l0.177-0.091l0.09,0.18h0.182l0.267-0.269l3.139,0.089l-0.267-0.716v-0.897
		l0.985-0.357l0.271-0.448l2.601-0.179l2.867,1.254l-0.086,0.18h1.434l0.09,0.717l1.077-0.269l1.705,0.896v-1.344h2.152l2.329-0.18
		l0.182,0.089l2.69-0.089l2.243,0.089l0.177-1.881l-1.792-1.075l-2.514-1.344v-0.091l-0.268-0.178l-0.357-1.166l2.868-3.046
		l0.448,0.089l0.719-0.089l0.357-0.181v-0.088l0.719-0.27l0.181,0.089l0.091-0.178h0.176l0.182-0.807l0.267,0.089l0.091-0.18v0.091
		h0.181v-0.18h0.092l0.089,0.18h0.086v-0.18h0.091v-0.089h0.091v0.089h0.09l-0.09-0.18l0.18,0.091v-0.091h0.091v-0.089l0.086,0.089
		v-0.269h0.091l-0.091-0.089l0.181,0.089v-0.089l0.091,0.179h0.091v-0.09l0.09,0.09v-0.09l0.087,0.18h0.181v0.089l0.09-0.089
		l0.09,0.269l0.091-0.089v0.089l0.087-0.089v0.089l0.361-0.089v0.089h0.09v-0.18l0.086,0.091v-0.18l0.182-0.09l-0.091,0.09
		l0.091,0.18l0.181-0.27h0.176l0.091,0.358h0.09v0.089h0.09v0.091h0.182v0.089h0.086v-0.18h0.181v0.18l0.271-0.089l-0.09-0.18
		l0.09-0.089v0.089l0.715-0.269l0.091,0.089l-1.435-4.032l0.267-0.089l0.448,0.089l0.271-2.061l3.496-1.612l0.091,0.358l4.129-0.896
		l0.176,0.09l0.091-0.09l-0.267-0.09l0.086-0.089l-0.086-0.359l0.267-0.358l-0.267-0.896v0.18h-0.091v-0.091h-0.091l-0.09-0.269
		h-0.091l0.181-0.179h0.268v-0.18h0.271l0.18-0.18v-0.447h-0.18l0.091-0.268l0.175,0.089l-0.086-0.358l0.268-0.18l2.424,0.269
		l1.524-0.806l1.167-0.987l-0.453-3.226l1.077-0.447l2.781-2.867l0.181-0.09l-0.09-0.807l-0.182-0.179l-0.176-0.718l0.09-0.269
		l0.716-0.089l0.18-0.358l-0.18-0.269L489.1,370.948z"/>
	<path id="Shape_1_23_" fill="#7DB721" stroke="#000000" stroke-width="0.5" stroke-miterlimit="10" d="M563.907,234.837
		l-30.495-5.914l-15.697-7.887l-7.354-0.178l-6.729,1.703l-14.079-2.778l-5.653,27.328l-6.815,1.613l-2.063,3.317l-12.558-0.449
		l-1.348,26.075l-0.268-0.27l-0.719-0.179l-0.538,0.179l-0.715-0.268l-0.181-0.449l-0.357-0.447l-0.451-0.09l-0.986,0.18
		l-0.268,0.357l0.539,0.27v0.091l0.715,0.446l0.09,0.18l0.361,0.27l0.805,1.164l0.271-0.088l0.086,0.536l-0.086,0.627h-0.09v0.091
		l-0.361,0.178l-0.178,0.361l-0.09,0.356l0.268,0.718l0.18,0.446l-0.09,0.091l0.09,0.538l0.182,0.269l0.715-0.091l0.272,0.179
		l0.446-1.254l0.447-0.716l0.539-0.18l0.271,0.089l0.357,0.27l-0.091,0.537l-0.715,0.448l-0.537,0.449l0.086,0.715l1.614,0.718v0.09
		l0.362,0.269l0.09,0.985l0.177,1.164l0.271,0.629l0.267,0.178l0.72-0.088l0.629-0.358v-0.18l0.538-0.181l0.357,0.092l0.628,0.537
		l0.448,0.807l-0.091,0.716l-0.176,0.718h-0.091l-0.271,0.448l-0.091,1.164l0.452,0.358l0.624-0.09l0.99-0.18l0.448,0.27
		l1.076,0.896l0.715,0.18l0.451,0.268l0.087,0.537l-0.267,0.181l-1.077,0.179l-0.181,0.447l0.181,0.807l0.629,0.359l1.076-0.807
		l0.357-0.09l0.271,0.18l0.267,0.626l-0.181,0.808l0.091,0.717l0.447,0.357l1.977,0.18l0.089,0.18h0.087l0.182,0.447l-0.357,0.269
		l-0.629-0.089l-0.538-0.089l-0.448,0.357l0.091,0.718l0.086,0.269l0.629,0.269l0.271,0.358l0.715-0.18l0.271,0.448l2.152,0.27
		v1.075l0.182-0.269h0.538l0.267,0.178l0.271,0.986l0.177,0.448l1.976,0.358v0.09h0.086l0.182,0.269l-0.091,0.27l-0.628,0.358
		l-0.625-0.181l-0.72-0.089l-0.537,0.447l-0.091,0.627l0.448,0.539l0.719,0.089l0.357,0.448l-0.267,0.448v0.179l-0.448,0.718v0.536
		l0.448,0.987l-0.091,0.716l-0.628,0.629l-0.539,0.178v0.09h-0.09l-0.448,0.807l0.091,0.627l0.181,0.089l0.177-0.178l0.271-0.628
		l0.267-0.089l0.271,0.179l-0.091,0.358l-0.537,0.357l-0.091,0.27l0.357,0.448h0.452l0.357,0.089l0.091-0.089l0.357,0.269l0.09,0.27
		h0.091v0.179l-0.448,1.882l0.177,0.538l0.985,0.357l0.811-0.268h-0.091l0.357-0.09l0.989,0.178v0.091l0.539,0.357l0.447,0.538
		l-0.09-0.089l0.357,0.537l-0.091,0.896l-0.357,0.18l-0.629-0.358l-0.447-0.717l-0.357-0.269l-0.899-0.359l-0.357,0.091
		l-0.539,0.448l-0.447,0.627l0.181,1.254l0.177,0.09l0.271,0.447l0.896,0.359l0.181,0.357l0.09,0.449l-0.271,0.985l-0.268,0.179
		l-0.271,0.449l0.181,1.344l0.448,0.357v0.09l0.719,0.359l0.086,0.178v-0.089l0.09,0.089l0.091,0.538h0.091v0.18h-0.091l0.091,0.089
		l-0.896,0.985l0.178,0.628l0.09,0.269h0.09v0.09l0.268,0.179l0.538-0.179l0.181-0.896h0.629l0.895,0.27l0.72,0.806l0.356,0.986
		l0.272,0.447h0.091l0.266,0.448l0.357,0.448l0.453,0.18l0.447,0.27l0.447,0.895l0.183,0.09l0.622,0.269l0.182,0.538l0.271,0.628
		l0.356,0.269l0.72-0.09l-0.182,0.09l0.448-0.18l0.448,0.358l-0.177,0.448h-0.091l-0.09,0.358l-0.091,0.985l0.181,0.269l0.268,0.181
		l1.524,0.716l0.091,0.18l0.09,0.357l-0.181,0.448l-0.448,0.538l-0.267,0.718l-0.09,0.806l0.267,0.717l0.451,0.269l0.625-0.269
		l0.809-1.165h0.092l0.089-0.18l-0.089,0.091l0.266-0.269l0.538-0.091l0.272,0.18l0.176,0.806l0.271,0.628l0.72,0.269v-0.09h0.086
		v0.09h0.09l0.091-0.178l0.271-0.091l0.449,0.091l-0.092,0.537h-0.089l-0.448,0.626l0.09,0.538l0.448,0.359l0.537-0.091l0.807,0.091
		l0.719-0.091l0.721,0.181l0.089,0.178l0.176,0.628l-0.265,1.434l-0.273,0.537l0.091,0.538l0.271,0.09v0.09h0.538v-0.09l0.267-0.179
		l0.358,0.179l0.181,0.717l0.356,0.537l0.81,0.449l0.805,0.357l0.629-0.089l1.523-0.538l0.453,0.089l0.268,0.358l0.894-0.806
		l0.091,0.09l1.438,0.447l0.086-0.179l0.362-0.09l0.356,0.179l0.271,0.358l0.448,0.091l0.267-0.449l-0.267-1.254l0.267-0.269
		l0.628,0.358l0.72,0.089l0.267-0.179l0.091-0.538l0.357-0.178l0.538-1.794l-0.714-0.806l0.089-0.269l0.178-0.179l0.36-0.091
		l0.448,0.181l0.091,0.626l0.177,0.448l0.362,0.089l0.446-0.357l-0.181-0.537l-0.091-0.449l0.182-0.447l0.356,0.179l0.182,0.538
		l0.719,0.627l0.448-0.179l0.09-0.359l-0.451-0.716l-0.268-0.628l0.09-0.358h0.091l0.538,0.448l0.269-0.09l0.089-0.538H517
		l0.176,0.27h0.181l0.267-0.179l-0.086-0.359l0.086-0.269h0.272l0.627-0.628l0.269,0.09l0.09,0.359l-0.358,0.539l-0.088,0.356
		l0.179,0.18l2.239-2.33l0.899-0.448l0.269,0.091l0.18-0.091l0.538-0.09l0.182-0.357h0.086v-0.18l0.271-0.09l0.719-6.272
		l2.329-5.197l0.719-10.035l8.163,1.164l11.211,4.929l6.997-31.184l-0.357-0.626l-0.719-0.358l0.719-1.075l-0.453-0.897v-0.537
		l-0.266-0.357l-0.091-1.613l1.167-0.538l0.181-0.807l-0.09-0.896l-0.629-0.449l-0.356-0.357l-0.182-0.448l6.639-25.18
		L563.907,234.837z"/>
	<path id="Shape_1_22_" fill="#7DB721" stroke="#000000" stroke-width="0.5" stroke-miterlimit="10" d="M396.714,197.022
		l1.076-8.333l0.181-8.602l-0.27-10.035l-0.092-15.592l-1.523-3.763l-1.613-1.076l-2.154-0.537l-2.602-1.435l-1.883-2.329
		l-1.615,0.626l-4.932,3.675l-17.223,11.291l-3.768,3.673l-7.445,3.853l-12.736,5.735l-10.494,4.39l-4.844,4.301l-9.866,5.108
		l-0.45,1.523l-0.088,7.885l-0.269,6.452l-1.077,2.241l-2.511,1.345l-5.113,2.419l-2.333,0.178l-1.972,2.061l-2.064,3.764
		l-2.064,0.268l-1.614-1.254l-7.624,2.688l-6.278,2.867l-9.598,5.288l-12.29,7.885l-4.394,3.137l-2.064,2.059l-0.358,1.883
		l4.754,10.126l2.601,7.348l0.359,4.75l3.318,0.894l24.577-0.178l7.984-0.627l11.481-2.061l4.216-0.18l0.717-6.004l0.807-2.957
		l2.872-1.434l3.855-0.359h4.486l9.867-0.268l2.959,2.42l3.139,4.121l-0.449,6.094l1.525,1.702l2.691,1.435l4.305,1.164l4.756-0.537
		l3.945-1.166l0.898-1.702l-0.449-3.495l0.18-3.314l1.166-1.703l1.883-0.717l3.768-0.537l2.602,1.164l2.063,2.778l1.256,5.556
		l1.166,3.315l2.063,2.688h2.154l2.959-0.449l1.076-4.479l0.807-5.556l1.615-3.942l4.574-2.151l0.896-2.061l-0.447-2.509
		l-1.076-10.752l-0.091-6.452l1.257-1.702l2.422-1.973l3.768-4.032l0.537-2.419l-0.986-1.702l-1.523-2.151l2.51-3.045l1.078-1.525
		l2.332-2.868l-1.257-5.822V197.022z"/>
	<path id="Shape_1_21_" fill="#7DB721" stroke="#000000" stroke-width="0.5" stroke-miterlimit="10" d="M374.109,268.977
		l-2.063-2.688l-1.166-3.315l-1.256-5.555l-2.063-2.779l-2.602-1.164l-3.768,0.537l-1.883,0.717l-1.166,1.703l-0.18,3.314
		l0.449,3.495l-0.898,1.702l-3.945,1.166l-4.756,0.537l-4.305-1.164l-2.691-1.435l-1.523-1.702l0.447-6.094l-3.139-4.121
		l-2.959-2.42l-3.769,0.18l-10.583,0.088l-3.857,0.359l-2.871,1.434l-0.807,2.957l-0.718,6.004l-4.215,0.18l-11.482,2.061
		l-7.984,0.627l-6.458,0.09l-2.062,8.153l-3.947,11.112l-4.574,14.605l4.036-0.18l9.418-0.627l6.189-0.089l5.382,1.522l3.588,3.226
		l1.974,4.57l1.076,3.674l1.615,6.183l7.175-0.807l8.165-2.062l1.521-1.075l4.756-2.956l4.036-2.778l4.216-1.434l16.594-3.315
		l1.076-2.24l1.256-3.494l0.807-5.196l-0.09-4.481l0.27-4.569l0.539-1.434l1.973-0.807l2.063-0.537l4.663,0.178l3.498-0.537
		l4.664-3.136l2.691-3.226L374.109,268.977z"/>
	<path id="Shape_1_20_" fill="#7DB721" stroke="#000000" stroke-width="0.5" stroke-miterlimit="10" d="M362.27,320.053
		l-0.807-7.438l-2.422-3.853l-1.884-2.688l-3.05-2.599l-3.049-2.062l-16.594,3.315l-4.216,1.434l-2.063,1.434l-3.588,2.33
		l-4.664,3.046l-8.163,2.062l-7.175,0.807l-0.538-2.15l-2.153-7.706l-1.974-4.57l-3.588-3.226l-5.382-1.522l-6.189,0.089
		l-1.794,0.18l-11.66,0.627l3.856-12.455l4.665-13.263l2.062-8.153l-18.118,0.088l-3.318-0.894h-5.651l-7.265,2.509l-3.499,0.806
		l-4.665,2.419l-1.524,7.169l-0.629,4.75l-1.076,10.753l-1.255,7.974l-9.778,10.663l-1.615,1.524l-4.752,4.839l-6.728,10.393
		l-7.625,12.546l-4.933,6.003l3.767,5.198l2.422,3.495l3.768,5.196l3.678,5.287l6.189,8.691l9.776,14.067l2.064-0.537l39.915-9.141
		l11.212,17.296l4.305,7.436l3.498-1.433l14.801-6.184l7.444-0.18v0.091l0.987-0.359v-0.089l0.538-0.18v-0.178l0.627,0.178
		l0.181-0.089v-0.089h0.269l0.269,0.178l0.089-0.178h0.09v-0.092h0.178l0.63-0.178l0.089-0.18l0.18,0.089l0.359-0.269l0.088-0.178
		h0.092v-0.18l0.178,0.09v-0.09h0.361v-0.089h0.088v0.089l0.18,0.09l0.09-0.179l0.357-0.092l0.539,0.092v0.089l0.18,0.09l0.089-0.09
		l0.269,0.09l0.18-0.09v-0.089l0.809-0.092v-0.089l0.27-0.089l0.088-0.18h-0.088l0.088-0.269l0.27-0.089l0.091-0.181h0.089v-0.089
		l0.357-0.091v-0.089l0.359-0.269l0.09,0.089v-0.089l0.359-0.088l0.18-0.27l0.089-0.27h0.181l0.268-0.18v0.089l0.627-0.178
		l0.27-0.448l0.36-0.09l0.358,0.09l0.09-0.181l0.18-0.089l0.18,0.089v-0.269l0.178,0.091v-0.18l0.09,0.089l0.629-0.178v-0.18h0.089
		v0.089h0.448v-0.089h0.09v0.089l0.091-0.089l0.358,0.089v-0.178h0.18v-0.18h-0.09l0.09-0.089l0.359,0.089l0.088-0.27l0.27,0.089
		v-0.089h0.359v-0.089l0.09,0.178l0.18,0.092l-0.091,0.269l0.091,0.089l0.09-0.089l0.088,0.178l0.539-0.178v0.089h0.18v0.089h0.18
		v0.091h0.09v0.089l0.18-0.089v-0.18h0.088v0.089h0.181v-0.089h0.09v-0.089l0.179-0.091v-0.089l0.359-0.089l0.18,0.089v-0.089h0.09
		l0.088-0.181h0.181l0.089-0.269l0.27,0.18v-0.18h0.09v-0.09h0.539v0.179h0.178v-0.089h0.181v0.089h0.089v-0.179l0.18,0.09
		l0.09-0.269l0.18-0.089v-0.181l0.27-0.089l0.179,0.27l0.358-0.091v-0.09h0.18l-0.09-0.18h0.18v-0.089l0.359-0.089v-0.091l0.09,0.18
		h0.089l0.269-0.18l0.359-0.089v-0.18h0.18l0.089,0.18l0.181-0.089v0.269l0.179-0.091l0.09,0.269l0.089-0.089l0.359,0.089
		l-0.09,0.27h0.18l0.357,0.18l0.181-0.18l0.18,0.091l-0.091,0.089l0.27,0.179h-0.179v0.179l0.179,0.091v0.089h0.359l0.09,0.181
		h-0.09v0.089h-0.09v0.089h-0.18v0.091l0.359,0.178l0.18-0.446h0.09l0.088-0.181l0.091,0.089l0.448-0.089v-0.089l0.359-0.091v-0.269
		h0.178v-0.089h0.091v-0.089l0.179,0.178l0.09-0.089l0.27-0.089l0.09-0.27h0.18v-0.091h0.09v-0.089h0.269v-0.18h-0.089v0.091
		l-0.092-0.18h0.092l0.269-0.18l-0.18-0.089v-0.18l0.18,0.091v-0.091h0.179v-0.09h0.18v-0.18h-0.09v-0.178h0.18l0.09-0.269h-0.27
		v-0.18h-0.09v-0.09h-0.088v-0.091h0.088v-0.089h-0.179v-0.089l-0.18-0.091l0.18-0.089l-0.18-0.089v-0.091h0.18l-0.18-0.178
		l0.089-0.18l-0.357-0.09v-0.091l0.269-0.178l-0.089-0.091l-0.092,0.091l-0.178-0.091l0.09-0.178l-0.27-0.18v0.089l-0.18,0.091
		v-0.538h0.09v0.089h0.18v-0.18l0.268-0.09v-0.088h0.092v-0.091l-0.18-0.089v-0.18h0.088l-0.088-0.447h-0.09v-0.359l0.178-0.089
		l-0.268-0.18l-0.09-0.179h0.09v-0.09h0.268v-0.09h0.092v-0.089l-0.359-0.091l0.18-0.357h-0.09v-0.089h0.09v-0.181h-0.09l0.27-0.089
		l-0.092-0.269h0.181v-0.091l-0.181-0.089v-0.089l-0.178-0.091v-0.089h0.27l-0.092-0.181l0.27-0.089l-0.089-0.269l0.448-0.18
		l0.27-0.178l0.447-0.181l0.091-0.181h0.269l-0.09-0.268h0.27l0.09-0.178h0.09l0.089,0.178l0.181-0.089v-0.269h0.088l0.181-0.27
		v0.09h0.089v0.091h0.091l0.091-0.181l0.178,0.09v0.091l0.09-0.181h0.09v0.181h0.09l0.09-0.27l0.18,0.27v-0.181h0.09v0.09h0.088
		l0.091,0.18h0.09v0.089l0.089-0.089l0.09,0.18l0.449-0.091l0.448-0.089v-0.089l0.269,0.178v-0.178h0.27v-0.091h0.09v0.091h0.09
		v-0.091h0.09v-0.09h0.088v0.09h0.092l0.09-0.27h0.179l0.091,0.27l-0.091,0.359h0.091v0.089h0.178v0.18h0.18v-0.091h0.18
		l-0.09,0.359l0.27-0.092v0.092h0.09v0.178h0.088v-0.089h0.091v0.089l0.179-0.089l0.27,0.181v0.089h0.09l0.09,0.269l0.09-0.089
		l0.449-0.269v0.089h0.088v-0.089h0.18l0.09-0.27l0.27,0.089v-0.089h0.18v0.089h0.088l0.092,0.27l0.269,0.089h-0.091v0.18h0.091
		l0.089-0.269l0.27-0.089v0.089h0.09v0.089h0.09v-0.178l0.357-0.092l0.091,0.092v-0.181h0.091l0.088-0.269h0.09v0.088h0.092v-0.268
		l0.178-0.089l-0.09-0.357h0.09v-0.091h-0.09v-0.09h-0.088l0.088-0.089l0.27-0.091v-0.089h0.09l0.09-0.269l0.178,0.089v0.091h0.092
		v-0.269h0.089v-0.091l0.181,0.091l0.178-0.269l-0.09-0.181h0.18v0.09h0.09v-0.179l0.357-0.091l0.27,0.091v-0.091h0.18l-0.357-3.046
		l0.089-2.419l0.718-2.957l-0.359-3.138l-0.807-3.94l0.986-5.377l-0.719-2.241l-1.703-2.509l-1.614-3.046l-0.808-3.048l0.627-2.419
		l2.244-1.613l2.51-3.314l3.32-2.868l1.614-2.688l1.884-4.032l0.807-5.285L362.27,320.053z"/>
	<path id="Shape_1_19_" fill="#7DB721" stroke="#000000" stroke-width="0.5" stroke-miterlimit="10" d="M604.81,169.424
		l-1.253-1.972l-4.754-6.63l-5.023-7.259l2.241-6.899l-5.651,0.717l-19.642,1.793l-6.549,0.717l-4.844-9.41l-5.653-11.738
		l-1.161-2.15l-5.297-10.842l-0.714-0.091v-0.089l-3.501-0.18l-10.764-1.164l-1.432-5.108l-1.798-6.989l-0.984-4.39l-3.41-1.075
		v0.089l-15.965-4.839l-12.826-0.089l-14.264,0.089l-0.896,0.18v-0.091l-1.256,0.359l-20.629,5.018l-11.211-0.359l-23.504-0.357
		l-1.166-0.629l-1.884-2.328l-12.108,4.928l-9.596,2.508l0.357,17.742l-2.333,15.053l0.63,3.407l-2.154,3.763l-2.063,2.419
		l-4.125,1.345l-1.795,0.447l1.883,2.329l2.602,1.435l2.154,0.537l1.613,1.076l1.523,3.763v9.318l0.361,14.159l-0.181,10.752
		l-1.076,8.333v6.364l1.257,5.822l-1.168,1.436l-2.242,2.957l-2.51,3.045l1.523,2.151l0.986,1.702l-0.537,2.419l-3.768,4.032
		l-2.422,1.973l-1.257,1.702h0.001l0.09,6.452l0.809,8.422l0.715,4.839l1.525,3.316l5.203-0.629l2.063,0.181l22.693,1.255
		l7.624-0.18l4.216,0.895l15.068,0.36l12.559-4.032l15.878,0.538l2.063-3.317l6.815-1.613l5.653-27.328l14.079,2.778l6.729-1.703
		l7.354,0.178l15.697,7.887l10.227,1.972l20.27,3.942l0.181-0.717l4.663-0.09l-3.586-21.773l8.253-13.084h-0.091l3.858-6.093
		l2.69-4.66l1.252-1.701l1.167-1.882l0.986-1.344l1.976-3.226h0.091v-0.09h0.088v-0.09h0.089v-0.089h0.09l0.182-0.09v-0.179
		l0.176-0.09l0.271,0.09v-0.09h0.09v-0.179l0.178-0.09h-0.087l0.087-0.09l0.091,0.09v-0.09h0.088v0.09h0.272v-0.358h0.086v0.09
		l0.181-0.09l0.182,0.09h0.091v-0.359h0.267v0.089h0.091l-0.091-0.269l13.993-7.257L604.81,169.424z"/>
	<path id="Shape_1_18_" fill="#7DB721" stroke="#000000" stroke-width="0.5" stroke-miterlimit="10" d="M399.674,118.886
		l-0.357-17.742l-3.948,1.075l-13.274,2.51l-8.432,0.626l-12.02,2.599l-11.57,3.404l-3.408,0.45l-2.871,1.164l-2.691,4.032
		l-4.933,1.793l-6.815,2.867l-2.244,1.792l4.305,2.957l1.076,1.972l-9.057,23.297l-9.33,4.212l-4.217,1.523l-12.378,4.839
		l-16.863,4.39l-13.992,5.018l-1.345,3.047l-0.181,4.48l-1.883,0.896l-3.679,1.882v1.702l-0.177,3.854l-8.611,6.272l-16.506,12.365
		l-5.113,1.256l-5.29,0.269l-3.14-0.807l-2.064-2.599l-1.615-3.226l-0.985-1.255l-9.419,1.075l-1.614,3.316l-0.718,4.21l0.089,6.453
		l0.987,6.182l0.358,3.675l-3.407,4.032l-4.574,3.944l-1.346,1.343l-4.128,3.853l-5.021-0.089l-4.127-1.435l-1.973,0.359
		l-7.445,1.613l-8.701-1.075l-6.458-1.704l-6.637-2.865l-3.857-0.807l-2.691,0.178l-2.96,0.537l-5.74,1.524l-8.791,3.942
		l-4.574,1.613l-9.508,1.791l-5.292,1.166l-8.701,4.659l-2.243,1.882l1.076,2.15l2.691,2.867l3.767,2.598l6.012,3.406l2.691,2.15
		l1.614,3.942l-1.526,3.942l-2.152,4.75l-1.615,7.975l-0.18,2.777l0.899,2.869l4.305,6.182l3.049,5.195l2.96,4.123l3.229,3.316
		l2.602,3.314l3.138,3.315l1.615,1.075l7.534,5.735l10.854,4.122l-1.076,4.301l4.126,1.164l16.325,4.75l12.826,3.494l17.132,6.541
		l4.933-6.003l5.382-8.96l8.971-13.979l3.138-3.227l3.229-3.137l9.778-10.663l0.986-6.003l0.898-8.244l1.076-9.229l1.524-7.169
		l4.665-2.419l3.499-0.806l7.265-2.509h5.651l-0.36-4.75l-2.6-7.348l-4.755-10.126l0.358-1.883l2.064-2.059l2.871-2.062l13.813-8.96
		l9.598-5.288l6.278-2.867l7.624-2.688l1.614,1.254l2.064-0.268l2.064-3.764l1.972-2.061l2.333-0.178l3.408-1.613l4.216-2.151
		l1.077-2.241l0.179-2.239l0.178-12.098l0.45-1.523l9.866-5.108l4.844-4.301l6.367-2.597l16.865-7.528l7.443-3.853l3.768-3.673
		l17.223-11.291l4.932-3.675l1.615-0.626l1.795-0.448l4.125-1.345l2.063-2.418l2.154-3.763l-0.629-3.407L399.674,118.886z"/>
	<path id="Shape_1_17_" fill="#7DB721" stroke="#000000" stroke-width="0.5" stroke-miterlimit="10" d="M2.945,206.88l0.007-0.007
		l-0.099-0.083L2.945,206.88z M424.519,51.771l-6.097-12.097l-3.768-6.989l-3.769-6.988l-1.075-2.241l-1.438-2.512v-0.356h0.091
		l-0.091-0.091l-0.628,0.181v0.091l-0.181-0.091l-0.446-0.271v0.09l-0.72-0.176V20.23l-0.536-0.361l-0.091-0.447l0.091-0.356
		l-0.271-0.719l-0.807-0.714l-0.182-1.166h-0.088l-0.09-0.628l0.09-0.447l-0.809,0.177l-12.916,2.064l-3.499-2.778l-2.869-2.422
		l-14.172-11.29l-0.18-0.268L355.992,1.68l-1.705,1.166l-7.982,6.271l-0.718,0.452L332.581,19.87l-3.858,2.959l-6.188,4.93
		l-0.717,0.714l0.447,2.779l0.181,1.973l0.356,1.164l0.449,2.33l-0.537,0.271l-3.679,2.597l-0.716,0.629l-5.743,4.21l-0.627-0.627
		l-0.627-0.448l-4.216-3.494l-0.627-0.447l-1.256-1.075l-5.292-4.301l-2.691,0.089l-0.807-0.089l-1.166,0.089l-0.538-0.089
		l-4.305,0.178l-0.808-0.089l-2.602,0.089l-2.78,1.255l-0.358,0.269l-2.333,1.075l-4.216,5.019l-4.933,4.748l-6.547,6.452
		l-3.589,3.943l-3.945,3.405l-0.898,1.882l-0.358,4.301l-0.987,3.941l-7.535,7.976L239.745,88.6l-2.96,6.184l-2.96,3.314
		l-3.678,4.391l-8.791,2.15l-8.789,3.585l-4.575,4.57l-0.629,4.121l-3.856,3.226l-2.152,1.523l-1.526,2.329l-1.254,4.929
		l-0.538,4.122l-1.167,3.584l-2.691,5.735l-2.691,2.061l-10.226,1.882l-4.125,0.985l-8.7,1.972l-4.216-2.42l-4.217-2.688
		l-1.523-2.328l0.179-4.212l0.36-1.793l-0.269-2.15l-1.077-2.777l-2.602-1.523h-2.78l-2.96,1.165l-7.804,4.211l-3.588-4.57
		l-4.844-1.612l-7.893-0.896l-6.817-1.075l-13.096-2.509H94.525l-10.583,0.807l-5.204,1.344l-1.166,0.807l-6.369-3.495l-7.174,2.24
		h-3.768l-3.589,0.269l-0.716,0.18l-6.189,0.716l-7.445,11.201l-0.627,1.344l-0.36-0.179l-3.768-1.434l-1.345,5.019l-1.166,5.017
		l-3.767,2.42l-2.153,1.344l-2.96,1.973l1.794,7.615l2.063,8.782l-0.089,1.164l-0.807,2.239l-3.14,5.199l-5.021,4.479l-1.257,1.256
		l-7.714,7.258l-8.073,7.796l2.96,3.852l-1.346,1.075l-2.592,2.503l1.069,0.903l10.673,9.229l-5.382,3.137l-8.7,6.542h0.001
		l2.78,3.764l5.382,7.617l-0.897,0.896l-2.063,1.882l-4.575,4.481l9.329,6.897l4.126,2.688l0.359,0.092l6.189,4.21l1.704,1.344
		l0.449,4.661l-1.077,21.236h6.728l6.278,19.981l5.202-0.628l5.651,13.262l26.462,1.702l9.596,4.569l1.256-0.806l37.493,0.09
		l29.153,0.358l-10.855-4.122l-4.483-3.494l-4.666-3.316l-3.138-3.314l-2.602-3.314l-3.229-3.316l-2.96-4.12l-3.049-5.197
		l-4.306-6.183l-0.898-2.869l0.18-2.776l1.615-7.976l1.076-2.33l2.602-6.36l-1.615-3.942l-2.691-2.15l-6.011-3.406l-3.767-2.597
		l-2.691-2.868l-1.076-2.15l2.244-1.882l8.7-4.659l3.499-0.807l11.302-2.15l4.575-1.613l8.791-3.941l5.74-1.523l2.96-0.539
		l2.691-0.176l3.856,0.805l6.638,2.867l6.458,1.703l8.7,1.075l5.382-1.255l4.036-0.718l4.127,1.435l5.022,0.09l1.436-1.256
		l4.036-3.941l4.575-3.942l3.407-4.032l-0.358-3.675l-0.987-6.183l-0.089-6.452l0.718-4.21l1.614-3.316l9.418-1.075l0.985,1.255
		l1.614,3.227l2.064,2.599l3.14,0.807l5.291-0.269l5.113-1.256l4.575-3.494l20.542-15.143l0.178-2.151v-3.405l1.795-0.985
		l3.767-1.792l0.18-4.48l1.346-3.047l13.993-5.019l16.862-4.39l2.063-0.807l14.531-5.556l9.329-4.212l9.059-23.297l-1.076-1.972
		l-4.305-2.957l2.242-1.792l6.816-2.867l4.934-1.793l2.69-4.032l2.871-1.164l3.408-0.449l11.571-3.403l12.019-2.6l8.433-0.626
		l13.274-2.511l13.543-3.583l12.109-4.928l-2.063-2.331l-0.449-0.626l-0.356-1.436l1.075-3.046l1.524-1.164l-0.358-9.23l-0.18-0.447
		l-0.18-0.091l0.09-0.984h-0.09l-0.09-0.718l0.449-0.357l0.449-0.718l0.536-0.448l0.09-0.447l0.27-0.628h0.09v-0.089h0.091
		l0.088-0.269h0.091v-0.09h0.091v-0.18h0.089v-0.18h0.09l0.09-0.357l0.271-0.718h0.09v-0.089h0.176l0.091-0.18h0.091l0.268-0.627
		l0.271-0.18V67.99l0.448-0.18l0.091-0.179l0.357-0.269l-0.091-0.18h-0.178v-0.089h0.093l0.085-0.18l0.181-0.09v0.09l0.271-0.09
		h-0.09v-0.09h0.267v0.09l0.091-0.179h0.091v-0.09h0.09v-0.448h0.091v-0.18h-0.091l0.091-0.358h0.086v-0.269h-0.086V65.21h0.086
		l0.092-0.269l-0.269-0.36h-0.09v-0.178h-0.091l0.091-0.091h-0.091v-0.089h0.091v-0.089l-0.271-0.091v-0.089h0.09v-0.089h-0.09
		v-0.092v-0.177l-0.268-0.092l0.091-0.089l-0.091-0.18l0.182-0.089v-0.18h0.086v-0.178l-0.716-0.181l0.092-0.18l0.086,0.091
		l0.361-0.091v-0.178l-0.271-0.18l-0.091-0.269l0.181-0.089V61.8h0.182v0.089l0.447-0.178l0.09,0.269v-0.091l0.357-0.447
		l-0.182-0.091l-0.086-0.178l0.178-0.091l-0.178-0.357l0.086-0.358l0.362,0.089l0.357,0.089v-0.089h-0.183l-0.176-0.357h0.176v0.089
		h0.183v-0.181h0.18v0.092h0.091l0.087,0.178l0.361-0.089l0.09-0.357h0.086l0.091-0.181h0.092l0.356-1.523L424.519,51.771z"/>
	<path fill="#7DB721" stroke="#000000" stroke-width="0.5" stroke-miterlimit="10" d="M75.778,54.641h-0.089v-0.089h0.089V54.641z
		 M187.093,22.914h-0.089v0.09h-0.09v-0.09l-0.09,0.176h0.269V22.914z M75.6,56.348h-0.091l0.091,0.089V56.348z M86.094,45.141
		v0.089h0.089v-0.089H86.094z M277.596,36.001l-11.66-2.15l-0.18-1.702l-0.716-0.629l-0.807-2.777l-0.18-1.884l-0.18-0.537
		l-0.178-1.97l-3.051-1.613l-12.198-2.331l-2.871,2.688l-5.382,0.899l-4.933,0.804l-0.987,0.719l-7.981,5.557l-8.791,0.178
		l-2.242,0.269l-8.073-0.538l-3.14-0.359l-0.808,0.09l-0.27-0.176v-0.091h-0.089v-0.09l-0.269-0.181l-0.987,0.181v0.09l-0.358,0.091
		v0.086l-0.269,0.181l-0.091,0.179h-0.089v0.092h-0.089l-0.091,0.269l-0.27-0.18v0.089h-0.269v-0.089h-0.447v-0.089l-0.269-0.092
		v0.092h-0.091v0.089h-0.089l-0.089,0.18h-0.091v0.178h-0.269v0.091h-0.269v0.089h-0.448v0.089h-0.449v-0.089l-0.179,0.089v-0.089
		h-0.09v0.089h-0.179v-0.089h-0.09v0.089h-0.358v0.092l-0.18,0.089l-0.089-0.181l-0.18-0.089l-0.089,0.089l-0.18-0.089v0.089
		l-0.27,0.092l-0.089,0.177l-0.27,0.181l-0.269,0.089l-0.09,0.18h-0.179v0.089h-0.269v0.091l-0.36,0.089v0.181h-0.089v0.089
		l-0.269,0.18l-0.089-0.18v0.089h-0.091v0.091h-0.089v0.089h-0.18v-0.089h-0.089l-0.271,0.357h-0.179v0.18h-0.179v0.09h-0.18v0.18
		h-0.089v0.089l-0.269-0.089l-0.18,0.089v0.089h-0.269v0.091l-0.18-0.091l-0.089,0.18h-0.089v-0.089l-0.18,0.089v-0.089h-0.269
		v0.178h-0.18v-0.178h0.09v-0.091h-0.09v-0.089h-0.089l-0.089-0.18h0.089l-0.089-0.089l0.089-0.181l-0.089,0.091V33.67h-0.18v-0.089
		h-0.18l-0.09-0.357h0.09v0.089h0.09l-0.09-0.269h0.18l-0.449-0.089v-0.27l0.09,0.089l0.179-0.089h-0.09l0.09-0.18h-0.09v-0.089
		h-0.089v0.089l-0.18-0.089v0.089h-0.089l0.089-0.18l-0.179,0.091l-0.09-0.091l0.09-0.089h-0.269v-0.181h0.269v-0.088h-0.09V31.88
		h-0.179v-0.092h0.179v-0.089l-0.269,0.089l0.09-0.178h-0.09l-0.089,0.178h-0.269l0.089-0.178h-0.269v-0.09h0.089v-0.089h0.091
		v-0.089l0.179,0.089v-0.18h-0.179l-0.091-0.27h-0.089v-0.179h0.089v-0.091h-0.089v-0.176h0.089l-0.178-0.091l0.089-0.271h-0.089
		v-0.091h-0.091v0.181h-0.269v-0.09h-0.089v-0.091h0.089v-0.267h0.091v-0.09h0.089v-0.181l-0.449,0.271v-0.181H187.9v0.091h-0.358
		v-0.181l-0.09,0.181h-0.09v-0.091l-0.089,0.091l0.089-0.357l-0.27,0.091V29.28h0.18l0.089-0.271h-0.089v-0.086h-0.09l0.179-0.09
		v-0.091l-0.358,0.091v-0.361h-0.18v0.09h-0.089v-0.176h-0.09v-0.181h0.089v0.09l0.089-0.09h-0.088v-0.091h-0.09v-0.181h0.09v-0.086
		l0.269-0.09v-0.091l-0.269,0.091v-0.271l-0.269,0.091v-0.091h-0.09V27.31h-0.09l0.09-0.271h0.09v-0.09h-0.09l0.09-0.177v0.086
		l0.179,0.091l-0.09-0.267h-0.089v-0.091h0.269V26.41l-0.269-0.09v-0.087h0.089v-0.181l0.18,0.091l0.089-0.181l-0.089-0.091
		l0.089-0.176h-0.089v-0.091h-0.09l0.179-0.09v-0.271h0.18v0.091h0.089v-0.177l-0.179-0.09h0.179l-0.089-0.181h-0.09v-0.091h-0.09
		v-0.09h-0.089l0.089-0.086h-0.269v0.086l-0.179-0.086l0.179-0.271h-0.358v-0.091h-0.18v-0.09h0.269V24.08h-0.089v-0.09l-0.09,0.09
		l-0.09-0.09l-0.089,0.09v-0.451h0.269v-0.086h-0.18v-0.181h0.269v0.09l0.18-0.271h0.269V23.09h0.089l0.09-0.176v0.09h0.09v-0.09
		h0.089v0.176h-0.269l0.18,0.181l0.179-0.09v-0.177l0.269-0.09l0.09-0.181h-0.09v-0.181h0.09v-0.086h-0.09v-0.091h0.09v-0.09h-0.09
		l-0.09-0.271h-0.179v0.091l-0.179,0.09l0.089-0.181h-0.089v-0.086h-0.18v-0.09h0.18v-0.181h-0.09V21.39h0.09v-0.182l0.179-0.09
		l-0.09-0.09h0.09v-0.091l-0.269,0.091l-0.09-0.267h-0.179V20.67h0.09l-0.18-0.09v-0.181h-0.179v-0.086l-0.179-0.091l-0.269,0.091
		v-0.362h-0.091v0.091l-0.269-0.091v0.182l-0.269,0.09l-0.448-0.181v0.091l-0.18,0.09l-0.089-0.361l0.269-0.086v-0.091l-0.359,0.091
		l-0.09-0.181l-0.179-0.09l-0.269-0.068v0.068h-0.09v0.09h-0.089v-0.09l-0.165-0.083h0.253l-0.089-0.267h-0.09l-0.088,0.26
		l-0.18-0.091v-0.087l-0.27-0.09l0.18-0.09l0.09-0.181l-0.09-0.177l0.09-0.091h-0.09v-0.09h-0.18v-0.091l-0.178-0.09l-0.27,0.181
		l-0.09,0.267h0.269v0.181l-0.628,0.091l0.09-0.181h-0.09v-0.091h-0.089l0.179-0.086l-0.09-0.181l-0.448,0.09v-0.09l0.27-0.181
		v-0.09H181.8v0.09h-0.09l-0.089,0.181l-0.449,0.267v-0.086h0.09l0.09-0.181l-0.449-0.091l-0.179,0.271l-0.09,0.357l-0.089-0.271
		h-0.18l0.089,0.719h-0.089v0.09l-0.718-0.09l0.09-0.268h-0.09v-0.09h-0.09v0.09h-0.358v0.624h-0.269l-0.09-0.177l0.09-0.271h-0.18
		v-0.267h-0.269l-0.089,0.177h-0.18v-0.357h-0.179l0.09,0.357h-0.09v0.09h-0.09v0.271h-0.358v0.177h0.089v0.181h0.269v0.181
		l-0.538,0.091l-0.089,0.267h-0.09v-0.447l-0.359,0.181v-0.181h-0.089v0.09h-0.09v-0.09h-0.269V20.05l0.179-0.091v-0.176h0.09
		l-0.448-0.091l-0.09-0.18l0.269-0.091v-0.09h-0.359v-0.087l0.18-0.09l-0.718-0.09v0.09l-0.269,0.177v0.09h0.18l-0.09,0.361
		l-0.179,0.086l0.179,0.538l-0.179,0.09l-0.27-0.176l-0.18,0.086V20.32l0.18-0.091v-0.09h-0.359v-0.182h-0.448v-0.176l-0.359,0.086
		v0.181l0.269,0.091h-0.09v0.09h-0.179v0.091h-0.179v-0.181h-0.09v0.09h-0.09V20.05l-0.448-0.091v-0.09h0.09v-0.086h0.179
		l-0.09-0.361l0.18-0.09v-0.087l-0.18-0.09l-0.179,0.09l0.09-0.271l-0.538,0.271l0.089,0.268l0.18,0.09v0.181h-0.18l-0.18,0.267
		h0.18v0.091h-0.089v0.09h-0.18v-0.09h-0.089l0.089-0.091l-0.089-0.267h-0.269l-0.09,0.176l0.18,0.091v0.091h-0.089v0.267h-0.09
		v-0.086h-0.089V20.23h-0.089l-0.09,0.177l0.538,0.271l-0.089-0.271l0.269,0.09v0.181h-0.089l-0.18,0.267h-0.089v-0.267h-0.18
		l0.089,0.537v0.091h0.09v-0.091l0.179-0.09v0.181h-0.089v0.091h-0.269v-0.091h-0.089v-0.091h-0.09l0.09-0.271h-0.09l-0.179,0.628
		l-0.18-0.267l0.18-0.091l0.089-0.271H171.4v-0.086h-0.09v0.086h-0.09l-0.089,0.361h-0.18l0.09-0.271l0.179-0.091h-0.089v-0.086
		h-0.18v0.086h-0.089v0.361h-0.09v-0.091l-0.269-0.09v0.271h-0.09v-0.091h-0.089v-0.091l-0.18-0.446l-0.089,0.356h-0.09v0.09h-0.09
		v0.091h-0.18v-0.091l-0.089,0.091l0.18,0.177h-0.091v0.09h-0.089v0.091l0.18,0.09l-0.36-0.09v0.09h-0.179v0.181h0.179l0.091,0.447
		h-0.18v-0.09l-0.627,0.09v-0.09l-0.09,0.181h-0.09v0.086h-0.089v0.09h0.179v0.091l-0.269-0.091l-0.269,0.181l0.09,0.181h-0.09
		l-0.179,0.267l-0.359-0.09v0.181h0.09v0.09h0.27v0.091l-0.359-0.091l-0.09,0.357h-0.089l-0.091-0.267v0.086l-0.178,0.09L167,23.547
		l0.18-0.181l-0.089-0.271l-0.18,0.091l-0.089,0.271h0.089v0.177h-0.18v-0.086h-0.089v-0.181h-0.089v0.181l-0.269,0.086v-0.086
		l-0.269-0.091v0.091h-0.18v-0.181h-0.179l-0.09,0.267h0.09l0.09,0.181h-0.09l-0.269-0.181l-0.09,0.09l0.09,0.182h-0.09v0.09h-0.179
		l-0.179,0.447h-0.09l-0.09-0.357h-0.089l0.179,0.447h-0.179v0.177h0.089v0.09h-0.179l-0.179-0.267h-0.091v0.091h-0.089V24.8h-0.269
		l-0.089-0.176h-0.09v0.086l-0.448-0.086l-0.18-0.271h0.09v-0.091h0.179v-0.09h-0.089l-0.09-0.357h-0.179v-0.091h0.089l-0.089-0.176
		l0.448-0.181l0.269,0.09v0.091h0.09l-0.09-0.452h-0.09l-0.089-0.356h-0.091v-0.091h-0.089v-0.09h-0.089l0.089-0.177h-0.089V22.11
		h-0.18v-0.267l-0.18-0.091l-0.269,0.091v-0.091l-0.178,0.091l-0.18-0.181l-0.269-0.091v-0.09h-0.089v-0.086h-0.091l-0.089-0.271
		l-0.18-0.09v-0.091h-0.178v-0.086h-0.18l0.089-0.537l-0.089-0.629l-0.358-0.271v-0.267l-0.27-0.09l-0.09-0.271h-0.09l0.09-0.177
		h-0.09v-0.09l-2.332,0.628l-2.87,1.88l-2.333,1.346l-1.794,1.252l-2.6-0.805l-0.449-0.181l-2.691-0.804l-1.525-0.361l-5.562-1.075
		l-4.486,0.451l-1.703,1.522l-1.705,1.433l-0.269,0.357h-0.09v0.09l-0.449,0.091l-0.089,0.18h0.089v0.267h-0.089v0.181h-0.089v0.091
		h-0.091l-0.448,0.176v0.091h-0.09v0.091h-0.09v0.09h-0.089v0.09h-0.18l-0.269-0.18l-0.807-0.629l-1.166-0.984l-1.255-1.433
		l-0.719-0.271l-0.627-0.357l-3.229-1.432l-3.409-1.256l-0.448-0.091l-3.947-0.181l-0.269,0.091l-0.269-0.091l-1.077,0.181
		l-2.78,0.271l-1.884,0.447l-0.718,0.091l-1.973-0.271l-0.898-0.268l-1.793-0.988V18.17l-0.449-0.361l-0.18-0.267h-0.089
		l-0.718-0.271l-1.165,0.181l-0.539-0.091l-0.449,0.091l-0.723-0.356l0.003-0.001l-1.883-1.075l-3.947-0.271l-1.704,1.432
		l0.089,0.361l0.627,0.448l0.091,0.356l-0.629,0.271v0.091h-0.089l0.18,0.177l0.627-0.177l0.27,0.086l-0.27,0.451l-0.18,1.252
		l-0.808,0.361l-0.089,0.356l0.358,0.538h0.091v0.181l-0.269,0.086L88.963,22.2l0.36,0.181v0.805h0.089v0.09h0.358l0.36,1.166
		l0.447,0.356l0.269,0.361l-0.089,0.624l-0.628,2.778l-2.871,1.075l-0.807-0.09v0.181l0.358,0.09l0.18,0.267l0.089,0.361
		L86.9,30.892l-0.269,0.181l-0.269,0.446l-0.269,0.18v0.089h-0.091v0.092h-0.627l-0.089,0.357l0.447,0.089l0.18-0.27l0.449,0.092
		v0.537l-0.18,0.358h-0.269l-0.18-0.27h-0.089v-0.089l-0.538-0.18v0.089l-0.449-0.178l-0.089-0.18H84.21v0.089h-0.09v0.269
		l0.807,0.091l0.091,0.27h-0.091v0.089H84.3v0.089h-0.18v0.091h-0.09l0.089,0.446l0.36,0.091l0.178,0.627l-0.178,0.089v0.18
		l-0.538,0.181v0.269h0.178v0.089l0.807-0.089l0.269-0.091v0.18h-0.089v0.089l0.448,0.091l-0.09,0.357h0.09v0.089h0.179v-0.089
		l0.18-0.089v-0.091h0.269v0.091h0.089v0.089l0.269,0.181v0.089h0.091v0.089h0.089l0.27-0.358h0.18l0.179,0.449h0.269v-0.18h0.09
		v-0.358l0.179-0.091v-0.178l0.18-0.091l0.089,0.537h0.09l-0.179,0.449h0.538v0.089h0.089v0.18l-0.269,0.089v0.091h-0.089
		l0.269,0.716l-0.18,0.359h-0.179v0.358h-0.09v-0.18h-0.089v-0.089h-0.18l-0.089,0.985l0.269-0.091l0.269,0.091v0.089l-0.269,0.181
		v0.178l0.269,0.091l0.358-0.091v0.091h-0.089v0.089h-0.09v0.18l-0.179,0.089v0.09h-0.18v0.091l0.269,0.178v0.091h-0.089v0.089
		h-0.09l0.269,0.089l0.179,0.448h-0.179l0.09,0.538h-0.18v0.538l0.359,0.18v0.178h-0.269l0.09,0.269l0.269-0.089v0.089h0.089
		l0.091,0.449h-0.091V42.9l-0.358-0.091V42.72h-0.09v0.271h0.179v0.089h0.09v0.091h0.09l0.18,0.626l-0.27,0.09v-0.179l-0.269,0.179
		l0.09,0.18l-0.359,0.089v-0.089h-0.09l-0.089,0.18l0.089,0.089h-0.089l-0.09,0.718h-0.09v-0.091l-0.179-0.089l0.09,0.269
		l-0.359-0.089l-0.18,0.089h0.089v0.089H87.17v-0.178h-0.18v0.27l-0.538-0.091v0.091h-0.358v-0.091l-0.36-0.089v-0.089l-0.358-0.18
		l0.089,0.089h-0.178v0.091l-0.269,0.089v0.18l-0.18,0.089V45.5h0.089v0.091l-0.269,0.089l-0.269,0.449H84.21v-0.091h-0.09v-0.089
		h-0.178v0.089l-0.269-0.089v0.18h-0.091v0.089l-0.269,0.089v0.091h0.091v0.089h-0.18v0.089h-0.089v0.091l-0.091-0.18h-0.089
		l-0.089,0.18l-0.18-0.091v0.091h-0.089v-0.091h-0.091v0.091l-0.269,0.178l0.091,0.27h-0.18v0.091h-0.089v-0.091h-0.091
		l-0.089,0.269H81.79v-0.178h0.089v-0.091l-0.538,0.091L81.25,47.38h-0.091v0.091H81.07V47.38l-0.089,0.18H80.89l-0.089-0.18h-0.269
		l-0.089,0.359v-0.18h-0.269l0.089,0.089h-0.089v0.27h-0.18v-0.09l-0.089,0.181h-0.091v-0.091l-0.089,0.18h-0.18v0.089l-0.178-0.089
		l0.089-0.18h-0.358v0.359h-0.18v0.178h-0.449v0.091L78.2,48.455l-0.089-0.178l-0.269,0.089l0.089-0.089h-0.178v-0.091h-0.091v0.091
		l-0.178,0.089l-0.18-0.089l-0.269,0.178h0.18v0.18h-0.091v-0.089h-0.089v0.089h-0.089l0.089,0.089l-0.089,0.181h0.089v0.089h0.089
		l-0.089,0.18h0.269v-0.089h0.089v0.089h0.091l-0.091,0.089h0.18v0.18l0.089-0.089l0.091,0.089l-0.18,0.18h0.18v0.089l0.089-0.089
		l0.089,0.358h-0.089v-0.089h-0.089v0.269h0.178v0.178h-0.089v0.091l-0.18,0.089v0.18h-0.447l0.178,0.09v0.089h-0.269v0.091h0.091
		l-0.091,0.178l0.269,0.18v0.18h0.18v0.178h0.089v0.27h0.091v0.18h-0.091v0.269h-0.089V52.31h-0.089v0.178h-0.091v0.091h-0.178
		v0.178h-0.091v-0.089h-0.089l0.089,0.181h-0.089l-0.089,0.178h-0.271v0.091h-0.091v0.269h-0.089v0.089h-0.089v0.089h-0.36v0.091
		h-0.089v0.089h0.089v0.089h-0.178v0.092h0.089l-0.089,0.446h-0.091v0.091H75.6v0.178h0.089v-0.089h0.089v0.089h-0.089v0.091
		l0.18,0.09v0.089h0.089v0.18h0.18v0.089h-0.091v0.091l-0.089,0.178l0.089,0.18h-0.178v0.089l-0.18,0.092v0.177H75.6l-0.091-0.269
		H75.42v0.092h-0.089v0.089l-0.18,0.088l0.089,0.092v-0.092l0.269,0.092v0.089H75.42v0.089h0.089v0.091H75.6v0.089l-0.091-0.089
		l-0.089,0.089h0.089v0.089l0.18,0.091l0.089,0.27l-0.089-0.092v0.181h0.089l-0.089,0.357h-0.18v0.091H75.6v0.089h-0.091v0.089
		l0.18,0.091l-0.089,0.17h-0.091v0.092H75.42v-0.092l-0.269,0.092v0.089h0.089l-0.089,0.18h0.089v0.089h0.091v0.089h0.089v-0.089
		h0.089v0.089H75.6l0.178,0.36V58.67h0.091v0.181h-0.091v0.269h-0.089v0.089h0.089l0.091,0.269h-0.091v-0.089H75.6v0.181h-0.091
		l0.091,0.445l-0.091,0.092l0.18,0.089v0.089h0.18v0.091l0.269-0.091l0.089,0.18h0.089l-0.089-0.18l0.089-0.089v0.089h0.091
		l-0.091-0.178h0.449v0.089h-0.089v0.089h0.178v0.091h0.269v0.178h0.091l0.089,0.181h-0.089l0.089,0.18l0.18,0.089v0.357h0.089
		V61.09h0.089v0.091l0.18,0.089v0.269h-0.089l-0.091,0.27l0.18,0.089V61.72h0.089v0.089h0.18l0.269-0.181v0.092h0.089v0.089h-0.089
		v0.269h0.18v0.089h0.089l-0.089,0.18h0.089v0.089l-0.089,0.269h0.089v0.092l0.18,0.089l-0.091,0.27h0.091v-0.089h0.089v0.178h0.269
		v0.091h-0.089l0.089,0.178h0.089V63.42h0.091v0.449h-0.091v0.089l0.18,0.089v-0.178h0.089l0.091,0.178l-0.091,0.091l0.18,0.089
		v0.089h-0.089l0.089,0.18v-0.089h0.089v0.089h0.091v0.089l0.089-0.089v0.089h0.089v0.091l-0.178,0.09h0.089v0.18h-0.089v0.178
		h-0.091v-0.089h-0.089v0.18h-0.089v-0.091h-0.091v0.18h-0.089l-0.18,0.269h0.18v0.089h0.089v0.181h0.091v0.089h0.178l-0.089,0.269
		h-0.18v0.18h0.091l-0.091,0.18v0.179h-0.089l0.18,0.269l-0.091,0.359l0.091,0.716l-0.091,0.18h-0.089v0.089l-0.18,0.091v-0.091
		h-0.089l-0.089,0.269h0.089v0.091h-0.089v0.179l-0.18-0.089l-0.269,0.089l-0.089,0.269h0.089v0.091h-0.18v0.089h0.091l0.089,0.27
		l0.18,0.088l0.089,0.538l-0.269,0.18v0.18H78.56v0.09h0.178v0.269l0.18,0.269l-0.089,0.18h-0.091v0.089h-0.089v0.09h-0.18
		l0.091,0.537h-0.091v0.091l-0.178,0.089l0.089,0.269l-0.269,0.09l-0.089,0.18l-0.18,0.089v0.091h-0.089v0.089h-0.091v0.089h-0.089
		v0.091h-0.089l-0.091,0.178h-0.089v0.091h-0.089l-0.091,0.27h-0.089v0.178h-0.089v0.269h-0.091l-0.178,0.448h0.089v0.358h-0.089
		v0.18l-0.36,0.18l-0.269,0.089v0.09H75.87v0.09h-0.091l-0.089,0.179H75.6l-0.091,0.27l-0.178,0.091v0.089H75.24v0.358h-0.09
		l-0.269,0.359h-0.18v0.089l-0.538,0.18v0.089h-0.089l-0.719,0.538l2.513,4.212l-0.629,5.285l0.718,0.897l-1.434,23.477
		l-3.229,2.239l-0.629,6.452l0.269,0.628l0.718,0.984l-0.449,1.435l6.369,3.495l1.166-0.807l5.204-1.344l10.583-0.807h10.764
		l4.844,0.984l12.647,2.241l10.313,1.254l4.844,1.612l3.589,4.57l7.803-4.211l2.96-1.165h2.781l2.601,1.523l1.077,2.777l0.269,2.15
		l-0.36,1.792l-0.179,4.213l1.524,2.328l2.691,1.792l5.741,3.316l2.242-0.447l8.522-2.063l12.288-2.329l2.691-2.061l2.691-5.735
		l1.167-3.584l0.538-4.122l1.254-4.929l1.526-2.329l2.152-1.523l3.856-3.226l0.629-4.122l4.575-4.569l8.789-3.585l8.791-2.15
		l2.422-2.957l4.217-4.748l2.96-6.184l7.354-8.513l8.969-9.589l0.987-3.941l0.358-4.301l0.898-1.882l3.945-3.405l1.795-1.971
		l3.409-3.586l9.865-9.587l4.216-5.019L277.596,36.001z M183.953,19.422h-0.09l0.09,0.023V19.422z M164.578,24.441h-0.179v0.09
		h0.179V24.441z"/>
</g>
<g id="Layer_2">
	<path fill="#C43227" stroke="#000000" stroke-width="0.5" stroke-miterlimit="10" d="M450.954,381.966
		c0,4.894-3.966,8.859-8.858,8.859c-4.894,0-8.859-3.966-8.859-8.859c0-4.893,3.966-8.858,8.859-8.858
		C446.988,373.107,450.954,377.073,450.954,381.966z"/>
	<path fill="#C43227" stroke="#000000" stroke-width="0.5" stroke-miterlimit="10" d="M114.5,29.25c0,2.899-2.351,5.25-5.25,5.25
		S104,32.149,104,29.25s2.351-5.25,5.25-5.25S114.5,26.351,114.5,29.25z"/>
	<path fill="#C43227" stroke="#000000" stroke-width="0.5" stroke-miterlimit="10" d="M197.5,289.325c0,2.899-2.351,5.25-5.25,5.25
		s-5.25-2.351-5.25-5.25s2.351-5.25,5.25-5.25S197.5,286.426,197.5,289.325z"/>
	<path fill="#C43227" stroke="#000000" stroke-width="0.5" stroke-miterlimit="10" d="M434.929,372.078
		c0,2.899-2.351,5.25-5.25,5.25s-5.25-2.351-5.25-5.25s2.351-5.25,5.25-5.25S434.929,369.179,434.929,372.078z"/>
</g>
</svg>
